<svg xmlns="http://www.w3.org/2000/svg" width="80" height="80" viewBox="0 0 80 80">
  <g id="그룹_10161" data-name="그룹 10161" transform="translate(-362.223 -415.538)">
    <g id="그룹_10096" data-name="그룹 10096" transform="translate(362.223 415.538)">
      <path id="패스_26438" data-name="패스 26438" d="M0,0H51.02V51.02H0Z" transform="translate(3.849 39.965) rotate(-45)" fill="none" stroke="#8ecae9" stroke-width="5" opacity="0.08"/>
      <g id="그룹_10094" data-name="그룹 10094">
        <g id="그룹_10093" data-name="그룹 10093">
          <g id="그룹_10092" data-name="그룹 10092">
            <g id="그룹_10091" data-name="그룹 10091">
              <path id="패스_26466" data-name="패스 26466" d="M18.692,0H61.308A18.692,18.692,0,0,1,80,18.692V61.308A18.692,18.692,0,0,1,61.308,80H18.692A18.692,18.692,0,0,1,0,61.308V18.692A18.692,18.692,0,0,1,18.692,0Z" fill="#602b8a"/>
            </g>
          </g>
        </g>
      </g>
      <g id="그룹_10095" data-name="그룹 10095" transform="translate(3.923 3.888)">
        <path id="패스_26431" data-name="패스 26431" d="M418.434,435.492l-36.076,36.076,36.076,36.077,36.077-36.077Zm-33.963,36.076,33.963-33.963L452.4,471.569l-33.963,33.963Z" transform="translate(-382.357 -435.492)" fill="#764195"/>
      </g>
    </g>
    <g id="그룹_10098" data-name="그룹 10098" transform="translate(401.124 432.218)">
      <g id="그룹_10097" data-name="그룹 10097" transform="translate(0 0)">
        <path id="패스_26432" data-name="패스 26432" d="M591.132,553.9V536.928H580.755V553.9H568.746V508.79h12.009v16.566h10.377V508.79h12.009V553.9Z" transform="translate(-567.089 -507.133)" fill="#fffdfd"/>
        <path id="패스_26433" data-name="패스 26433" d="M594.637,503.6v41.8h-8.695V528.424H572.251V545.4h-8.695V503.6h8.695v16.566h13.691V503.6h8.695m3.314-3.314H582.628v16.566h-7.063V500.286H560.242v48.429h15.324V531.738h7.063v16.976h15.323V500.286Z" transform="translate(-560.242 -500.286)" fill="#602b8a"/>
      </g>
    </g>
    <g id="그룹_10102" data-name="그룹 10102" transform="translate(367.559 452.193)">
      <g id="그룹_10101" data-name="그룹 10101">
        <g id="그룹_10099" data-name="그룹 10099">
          <path id="패스_26434" data-name="패스 26434" d="M408.349,619.365l-.526-5.786h-6.15L402.9,626.84A17.553,17.553,0,0,1,408.349,619.365Z" transform="translate(-399.321 -611.434)" fill="#edb9d1"/>
          <path id="패스_26435" data-name="패스 26435" d="M398.106,604.718l.526,5.786a17.553,17.553,0,0,0-5.451,7.475l-1.225-13.261h6.15m1.959-2.145H389.6l.216,2.342,1.225,13.261.8,8.715,3.316-8.1a15.506,15.506,0,0,1,4.746-6.566l.965-.718-.109-1.2-.526-5.786-.177-1.951Z" transform="translate(-389.604 -602.573)" fill="#602b8a"/>
        </g>
        <g id="그룹_10100" data-name="그룹 10100" transform="translate(1.733 0.017)">
          <path id="패스_26436" data-name="패스 26436" d="M438.065,613.668H432.2a19.543,19.543,0,0,1-.168,6.644c-.761,4.448-2.415,7.876-3.693,7.658-.319-.055-.585-.332-.792-.787-.11-.5-.239-.986-.387-1.45-1.024-3.2-2.95-5.439-5.452-5.868-.166-.028-.331-.047-.5-.059-4.445-.319-8.956,5.191-10.235,12.658q-.126.737-.2,1.462h6.14q.032-.205.067-.413c.761-4.448,2.415-7.876,3.693-7.657.364.062.658.416.876.991q.115.492.256.959c1,3.331,2.963,5.676,5.528,6.115l.034.005c4.591.754,9.375-4.877,10.7-12.6A21.8,21.8,0,0,0,438.065,613.668Z" transform="translate(-408.376 -611.523)" fill="#edb9d1"/>
          <path id="패스_26437" data-name="패스 26437" d="M428.188,604.807a21.8,21.8,0,0,1-.006,7.654c-1.243,7.261-5.543,12.671-9.867,12.671a5.125,5.125,0,0,1-.831-.068l-.034-.005c-2.565-.439-4.525-2.784-5.528-6.115q-.141-.467-.256-.959c-.217-.574-.511-.928-.876-.991a.7.7,0,0,0-.117-.01c-1.26,0-2.837,3.354-3.576,7.667q-.035.207-.067.413h-6.14q.079-.725.2-1.462c1.243-7.261,5.543-12.671,9.867-12.671q.184,0,.368.013c.166.012.332.031.5.059,2.5.428,4.427,2.668,5.452,5.868.148.464.277.948.387,1.45.207.455.473.732.792.787a.693.693,0,0,0,.117.01c1.26,0,2.837-3.354,3.576-7.667a19.544,19.544,0,0,0,.168-6.644h5.869m1.777-2.145H419.691l.526,2.574a17.511,17.511,0,0,1-.181,5.852,22.093,22.093,0,0,1-1.083,4.1c-1.4-3.522-3.823-5.8-6.765-6.3-.227-.039-.464-.067-.706-.085-.172-.012-.348-.019-.521-.019-2.774,0-5.536,1.575-7.777,4.435a22.664,22.664,0,0,0-4.2,10.019c-.09.527-.165,1.062-.223,1.592l-.259,2.377h10.366l.283-1.814q.029-.19.062-.382a21.985,21.985,0,0,1,1.105-4.158c1.4,3.535,3.816,5.811,6.772,6.317l.068.011a7.283,7.283,0,0,0,1.159.093c2.774,0,5.536-1.575,7.777-4.435a22.662,22.662,0,0,0,4.2-10.019,24.029,24.029,0,0,0,0-8.415l-.33-1.746Z" transform="translate(-398.499 -602.662)" fill="#602b8a"/>
        </g>
      </g>
    </g>
  </g>
</svg>
