<svg xmlns="http://www.w3.org/2000/svg" xmlns:xlink="http://www.w3.org/1999/xlink" width="56" height="56" viewBox="0 0 56 56">
  <defs>
    <clipPath id="clip-path">
      <rect id="사각형_27028" data-name="사각형 27028" width="56" height="56" transform="translate(-16676.443 6110)" fill="#fff"/>
    </clipPath>
  </defs>
  <g id="그룹_9307" data-name="그룹 9307" transform="translate(16676.443 -6110)" clip-path="url(#clip-path)">
    <path id="패스_26480" data-name="패스 26480" d="M421.5,260.461H401.229l-5.975-5.6H377.387a5.952,5.952,0,0,0-6.149,5.734v33.331a5.735,5.735,0,0,0,5.734,5.735H421.5a5.735,5.735,0,0,0,5.735-5.735V266.2A5.735,5.735,0,0,0,421.5,260.461Zm3.735,33.465a3.74,3.74,0,0,1-3.735,3.735H376.973a3.739,3.739,0,0,1-3.734-3.735V266.2a3.738,3.738,0,0,1,3.734-3.734H421.5a3.739,3.739,0,0,1,3.735,3.734Z" transform="translate(-17047.682 5860.739)"/>
  </g>
</svg>
