<svg xmlns="http://www.w3.org/2000/svg" xmlns:xlink="http://www.w3.org/1999/xlink" width="210" height="210" viewBox="0 0 210 210">
  <defs>
    <clipPath id="clip-path">
      <rect id="사각형_27047" data-name="사각형 27047" width="210" height="210" transform="translate(-8999.942 4480.058)" fill="#fff" stroke="#707070" stroke-width="1"/>
    </clipPath>
  </defs>
  <g id="그룹_9315" data-name="그룹 9315" transform="translate(8999.942 -4480.058)" clip-path="url(#clip-path)">
    <g id="그룹_10086" data-name="그룹 10086" transform="translate(-10827.562 4272.498)">
      <g id="그룹_10066" data-name="그룹 10066" transform="translate(1846.839 231.757)">
        <g id="그룹_10065" data-name="그룹 10065">
          <g id="_793_Puzzle_Strategy_Teamwork" data-name="793, Puzzle, Strategy, Teamwork">
            <g id="그룹_10064" data-name="그룹 10064">
              <path id="패스_26415" data-name="패스 26415" d="M1973.623,264.017l-1.175-1.236-2.616,2.5-12.007,12.006a1.88,1.88,0,0,0,.949,3.158,11.929,11.929,0,0,1,4.739,2.843,11.171,11.171,0,0,1-.317,16.116,11.45,11.45,0,0,1-16.114.316,11.925,11.925,0,0,1-2.845-4.741,1.92,1.92,0,0,0-2.842-1.263c-.315,0-.315,0-10.742,10.741l-8.216-8.213a15.239,15.239,0,1,0-21.168-21.169l-10.427-10.426-3.2-2.8-33.763,33.764a17.927,17.927,0,0,0,0,25.276c.317.315,31.595,31.595,31.281,31.279h0c36.018,35.7,34.121,34.123,36.018,35.386a3.147,3.147,0,0,0,1.58,1.265,18.172,18.172,0,0,0,22.117-2.528l63.189-63.19a17.925,17.925,0,0,0,0-25.278l-34.438-33.8h0m-116.9,34.438,30.965-30.964,12.321,12.324a1.971,1.971,0,0,0,3.16-.634,21.245,21.245,0,0,1,2.211-3.474,11.441,11.441,0,0,1,16.115,0c5.685,5.687,3.79,14.849-3.477,18.326a1.969,1.969,0,0,0-.632,3.159l10.111,10.11-8.216,8.215a14.966,14.966,0,0,0-15.48-6.319,15.187,15.187,0,0,0-5.688,27.487l-11.375,11.376-30.016-30.016A13.922,13.922,0,0,1,1856.719,298.455Zm85.308,84.991a14.168,14.168,0,0,1-15.8,2.843l25.908-25.908a2.011,2.011,0,0,0-2.844-2.843l-26.224,26.224c-.632-.63,1.581,1.579-33.175-33.174l12.953-12.955a1.97,1.97,0,0,0-.631-3.161c-3.792-1.579-6.319-5.685-6.636-9.793a11.561,11.561,0,0,1,9.162-11.69c5.056-.949,10.427,1.579,12.324,6.32a1.967,1.967,0,0,0,3.159.63l10.11-10.107,8.216,8.213a15.239,15.239,0,1,0,21.168,21.168l12.955,12.955Zm62.875-62.874-29.385,29.382-14.848-14.849a1.968,1.968,0,0,0-3.16.631c-3.16,7.268-12.955,8.531-18.325,3.476-5.688-5.685-3.792-14.849,3.474-18.325a1.969,1.969,0,0,0,.632-3.159l-10.111-10.111c1.9-1.9,6-6,8.216-8.213,4.739,9.162,17.062,10.427,24.327,3.158s5.688-19.589-3.157-24.329l9.795-9.793,32.542,32.544C2010.589,306.038,2010.589,314.885,2004.9,320.572Z" transform="translate(-1846.294 -219.783)"/>
              <path id="패스_26416" data-name="패스 26416" d="M1860.062,336.523a12.006,12.006,0,1,0,12.006,12.006A12,12,0,0,0,1860.062,336.523Zm0,19.589a7.9,7.9,0,1,1,7.9-7.9A7.823,7.823,0,0,1,1860.062,356.112Z" transform="translate(-1846.475 -197.505)"/>
              <path id="패스_26417" data-name="패스 26417" d="M1962.979,260.474a9.795,9.795,0,1,0-9.795-9.793A9.843,9.843,0,0,0,1962.979,260.474Zm0-15.8a6,6,0,1,1-6,6A6,6,0,0,1,1962.979,244.676Z" transform="translate(-1815.113 -226.036)"/>
              <path id="패스_26418" data-name="패스 26418" d="M1955.783,229.448a2.843,2.843,0,1,1-2.844,2.843A2.845,2.845,0,0,1,1955.783,229.448Z" transform="translate(-1815.186 -229.448)"/>
              <path id="패스_26419" data-name="패스 26419" d="M1977.444,265.22a2.845,2.845,0,1,1-2.846,2.843A2.843,2.843,0,0,1,1977.444,265.22Z" transform="translate(-1808.725 -218.776)"/>
              <path id="패스_26420" data-name="패스 26420" d="M1972.82,326.06a2.843,2.843,0,1,1-2.845,2.843A2.844,2.844,0,0,1,1972.82,326.06Z" transform="translate(-1810.104 -200.626)"/>
              <path id="패스_26421" data-name="패스 26421" d="M1930.743,332.144a1.9,1.9,0,1,1-1.894,1.894A1.894,1.894,0,0,1,1930.743,332.144Z" transform="translate(-1822.373 -198.811)"/>
              <path id="패스_26422" data-name="패스 26422" d="M1951.4,351.854a2.845,2.845,0,1,1-2.843,2.846A2.844,2.844,0,0,1,1951.4,351.854Z" transform="translate(-1816.492 -192.931)"/>
              <path id="패스_26423" data-name="패스 26423" d="M1886.184,353.315a2.843,2.843,0,1,1-2.843,2.843A2.844,2.844,0,0,1,1886.184,353.315Z" transform="translate(-1835.949 -192.495)"/>
              <circle id="타원_336" data-name="타원 336" cx="2.843" cy="2.843" r="2.843" transform="translate(0 115.323)"/>
              <path id="패스_26424" data-name="패스 26424" d="M1851.142,265.22a2.845,2.845,0,1,1-2.844,2.843A2.843,2.843,0,0,1,1851.142,265.22Z" transform="translate(-1846.403 -218.776)"/>
              <path id="패스_26425" data-name="패스 26425" d="M1870.853,239.181a2.845,2.845,0,1,1-2.843,2.846A2.844,2.844,0,0,1,1870.853,239.181Z" transform="translate(-1840.523 -226.544)"/>
            </g>
          </g>
        </g>
      </g>
      <g id="그룹_10067" data-name="그룹 10067" transform="translate(1901.084 221.707)">
        <path id="패스_26426" data-name="패스 26426" d="M1931.274,301.737l3.046,2.961c1.9-1.9,8.645-8.651,10.857-10.86,4.739,9.164,17.06,10.427,24.327,3.159s5.688-19.589-3.157-24.329l12.638-12.637-.137-.138-1.442-1.441h0l-2.033-2.034c-30.761-30.772-29.279-29.59-30.826-30.825a3.14,3.14,0,0,0-1.58-1.263,18.169,18.169,0,0,0-22.116,2.524l-32.229,32.228h0l15.166,15.167a1.97,1.97,0,0,0,3.16-.634,21.238,21.238,0,0,1,2.211-3.473,11.441,11.441,0,0,1,16.115,0c5.685,5.687,3.79,14.849-3.477,18.325a1.968,1.968,0,0,0-.632,3.159l10.111,10.111" transform="translate(-1888.62 -221.707)"/>
        <path id="패스_26427" data-name="패스 26427" d="M1922.311,228.8a14.172,14.172,0,0,1,15.8-2.847l-23.379,23.382a2.011,2.011,0,0,0,2.842,2.846l24.013-24.014c.626.626-1.222-1.223,29.611,29.611l1.037,1.037-12.007,12.006a1.88,1.88,0,0,0,.949,3.159,11.913,11.913,0,0,1,4.739,2.843,11.168,11.168,0,0,1-.318,16.115,11.447,11.447,0,0,1-16.112.315,11.92,11.92,0,0,1-2.845-4.74,1.921,1.921,0,0,0-2.842-1.265c-.315,0-.315,0-10.742,10.742l-8.216-8.214a15.238,15.238,0,1,0-21.168-21.168l-10.427-10.427Z" transform="translate(-1887.241 -220.809)" fill="#e6cdf8"/>
        <path id="패스_26428" data-name="패스 26428" d="M1954.083,250.982" transform="translate(-1869.091 -212.974)"/>
        <path id="패스_26429" data-name="패스 26429" d="M1920.951,282.826" transform="translate(-1878.975 -203.474)"/>
        <path id="패스_26430" data-name="패스 26430" d="M1956.029,249.034" transform="translate(-1868.51 -213.555)"/>
      </g>
    </g>
  </g>
</svg>
