<svg xmlns="http://www.w3.org/2000/svg" xmlns:xlink="http://www.w3.org/1999/xlink" width="56" height="56" viewBox="0 0 56 56">
  <defs>
    <clipPath id="clip-path">
      <rect id="사각형_27026" data-name="사각형 27026" width="56" height="56" transform="translate(-16746.443 6110)" fill="#fff"/>
    </clipPath>
  </defs>
  <g id="마스크_그룹_9308" data-name="마스크 그룹 9308" transform="translate(16746.443 -6110)" clip-path="url(#clip-path)">
    <g id="그룹_10151" data-name="그룹 10151" transform="translate(-16748.443 6108)">
      <path id="패스_26447" data-name="패스 26447" d="M41.009,34.455V29.364H54.182V5.818H21.091V29.364H17.273V5.818a3.681,3.681,0,0,1,1.121-2.7A3.681,3.681,0,0,1,21.091,2H54.182a3.681,3.681,0,0,1,2.7,1.121A3.681,3.681,0,0,1,58,5.818V30.636a3.828,3.828,0,0,1-3.818,3.818ZM5.818,58a3.681,3.681,0,0,1-2.7-1.121A3.681,3.681,0,0,1,2,54.182V30.636a3.681,3.681,0,0,1,1.121-2.7,3.681,3.681,0,0,1,2.7-1.121H38.909a3.828,3.828,0,0,1,3.818,3.818V54.182A3.828,3.828,0,0,1,38.909,58Zm0-3.818H38.909V30.636H5.818Z"/>
      <path id="패스_26448" data-name="패스 26448" d="M15.7,37.85v-8.2l6.6,4.1Z" transform="translate(4.396 9.268)" fill="#602b8a"/>
      <path id="패스_26449" data-name="패스 26449" d="M26,18.75a5.48,5.48,0,0,1-5.5-5.506A5.47,5.47,0,0,1,26,7.75h2v2H26a3.483,3.483,0,0,0-3.5,3.494A3.493,3.493,0,0,0,26,16.75h2v2Z" transform="translate(7.082 2.929)" fill="#602b8a"/>
      <path id="패스_26450" data-name="패스 26450" d="M32,18.75v-2h2a3.483,3.483,0,0,0,3.5-3.494A3.493,3.493,0,0,0,34,9.75H32v-2h2a5.48,5.48,0,0,1,5.5,5.506A5.47,5.47,0,0,1,34,18.75Z" transform="translate(11 2.929)" fill="#602b8a"/>
      <rect id="사각형_27158" data-name="사각형 27158" width="7" height="2" transform="translate(36.001 15.178)" fill="#602b8a"/>
    </g>
  </g>
</svg>
