<svg xmlns="http://www.w3.org/2000/svg" xmlns:xlink="http://www.w3.org/1999/xlink" width="408.339" height="620" viewBox="0 0 408.339 620"><defs><linearGradient id="a" x1="0.723" y1="0.5" x2="0.739" y2="1.649" gradientUnits="objectBoundingBox"><stop offset="0" stop-color="#602b8a"/><stop offset="1" stop-color="#edb9d1"/></linearGradient><filter id="b" x="0" y="129.764" width="213.77" height="213.77" filterUnits="userSpaceOnUse"><feOffset dy="16" input="SourceAlpha"/><feGaussianBlur stdDeviation="20" result="c"/><feFlood flood-opacity="0.204"/><feComposite operator="in" in2="c"/><feComposite in="SourceGraphic"/></filter><filter id="d" x="187.763" y="172.212" width="220.576" height="220.576" filterUnits="userSpaceOnUse"><feOffset dy="16" input="SourceAlpha"/><feGaussianBlur stdDeviation="20" result="e"/><feFlood flood-opacity="0.204"/><feComposite operator="in" in2="e"/><feComposite in="SourceGraphic"/></filter><filter id="f" x="129.629" y="110.278" width="142.274" height="142.274" filterUnits="userSpaceOnUse"><feOffset dy="20" input="SourceAlpha"/><feGaussianBlur stdDeviation="10" result="g"/><feFlood flood-opacity="0.082"/><feComposite operator="in" in2="g"/><feComposite in="SourceGraphic"/></filter></defs><g transform="translate(6390.701 -9205.89)"><text transform="translate(-6190.61 9657.599)" fill="#602b8a" font-size="26" font-family="Pretendard-SemiBold, Pretendard" font-weight="600"><tspan x="-73.58" y="0">하이브리드 앱 </tspan><tspan x="-44.928" y="30">실행환경</tspan></text><g transform="translate(-6158.61 9205.89)"><rect width="140" height="80" rx="10" fill="#602b8a"/><text transform="translate(70 50)" fill="#fff" font-size="26" font-family="Pretendard-ExtraBold, Pretendard" font-weight="800"><tspan x="-44.954" y="0">HTML5</tspan></text></g><g transform="translate(-6329.701 9327.168)"><g transform="translate(35.14 109.324)"><path d="M68.189,186.876a9.286,9.286,0,0,1-6.551-2.7,9.012,9.012,0,0,1,0-12.963,9.276,9.276,0,0,1,6.549-2.7H83.971V157.476h-5.6a12.557,12.557,0,0,1-8.866-3.645,12.259,12.259,0,0,1-3.668-7.822H18.025a18.085,18.085,0,0,1-12.676-5.12A17.525,17.525,0,0,1,0,128.215V17.791A17.613,17.613,0,0,1,5.2,5.267,17.988,17.988,0,0,1,18.025,0H188.875A18.1,18.1,0,0,1,201.7,5.125a17.621,17.621,0,0,1,5.2,12.666V128.215a17.613,17.613,0,0,1-5.2,12.524,17.98,17.98,0,0,1-12.827,5.27H141.07a12.266,12.266,0,0,1-3.668,7.822,12.563,12.563,0,0,1-8.868,3.645h-5.607V168.5h15.783a9.283,9.283,0,0,1,6.551,2.7,9.014,9.014,0,0,1,0,12.963,9.286,9.286,0,0,1-6.551,2.7Zm-1.966-9.9a1.925,1.925,0,0,0,1.966,1.923h70.521a1.927,1.927,0,1,0,0-3.853H68.189A1.928,1.928,0,0,0,66.223,176.975Zm25.08-8.833h24.659V157.12H91.3ZM78.366,149.861H128.9a5.161,5.161,0,0,0,5.083-3.86l-60.765-.346A5.151,5.151,0,0,0,78.366,149.861ZM6.969,17.791V128.215a10.857,10.857,0,0,0,11.056,10.89H188.875a10.858,10.858,0,0,0,11.057-10.89V17.791A10.858,10.858,0,0,0,188.875,6.9H18.025A10.856,10.856,0,0,0,6.969,17.791Zm10.362,101.4a3.612,3.612,0,0,1-3.483-3.466V16.665a3.614,3.614,0,0,1,3.483-3.47H189.937a3.717,3.717,0,0,1,3.479,3.83v98.7a3.609,3.609,0,0,1-3.479,3.466Zm3.484-6.934H186.451V20.494H20.815Z" fill="url(#a)"/></g><line x2="81.758" y2="75.919" transform="translate(57.174 117.307)" fill="none" stroke="#707070" stroke-linecap="round" stroke-width="4" stroke-dasharray="0 8" opacity="0.3"/><line x1="0.417" y2="132.211" transform="translate(138.932 67.251)" fill="none" stroke="#707070" stroke-linecap="round" stroke-width="4" stroke-dasharray="0 8" opacity="0.3"/><line x1="80.09" y2="67.576" transform="translate(139.349 125.649)" fill="none" stroke="#707070" stroke-linecap="round" stroke-width="4" stroke-dasharray="0 8" opacity="0.3"/><g transform="matrix(1, 0, 0, 1, -61, -121.28)" filter="url(#b)"><circle cx="45.885" cy="45.885" r="45.885" transform="translate(61 174.76)" fill="#fff" stroke="#602b8a" stroke-width="2"/></g><g transform="translate(24.93 73.486)"><path d="M717.926,1559.97H691.47a1.066,1.066,0,0,0-1.066,1.066v22.185a1.066,1.066,0,0,0,1.066,1.066h4.717v7.476a3.141,3.141,0,1,0,6.282,0v-7.476h4.393v7.476a3.141,3.141,0,1,0,6.282,0v-7.476h4.782a1.066,1.066,0,0,0,1.065-1.066v-22.185A1.066,1.066,0,0,0,717.926,1559.97Z" transform="translate(-682.784 -1542.752)" fill="#aac148"/><path d="M3.141,1559.5A3.141,3.141,0,0,0,0,1562.641V1575.4a3.141,3.141,0,1,0,6.282,0v-12.758A3.141,3.141,0,0,0,3.141,1559.5Z" transform="translate(0 -1542.287)" fill="#aac148"/><path d="M3404.821,1559.5a3.141,3.141,0,0,0-3.141,3.141V1575.4a3.141,3.141,0,0,0,6.282,0v-12.758A3.141,3.141,0,0,0,3404.821,1559.5Z" transform="translate(-3364.135 -1542.287)" fill="#aac148"/><path d="M710.771,15.662h25.966a1.067,1.067,0,0,0,1.043-1.287,14.352,14.352,0,0,0-7-9.536L733,.834a.561.561,0,0,0-.982-.544L729.78,4.325a14.366,14.366,0,0,0-12.051,0L715.492.289a.561.561,0,1,0-.982.544l2.22,4.005a14.353,14.353,0,0,0-7,9.536A1.067,1.067,0,0,0,710.771,15.662ZM731.5,9.693a1.207,1.207,0,1,1-1.207-1.207A1.207,1.207,0,0,1,731.5,9.693ZM717.213,8.486a1.207,1.207,0,1,1-1.207,1.207A1.207,1.207,0,0,1,717.213,8.486Z" transform="translate(-701.871 0)" fill="#aac148"/></g><g transform="translate(187.763 95.934)"><g transform="matrix(1, 0, 0, 1, -248.76, -217.21)" filter="url(#d)"><circle cx="49.288" cy="49.288" r="49.288" transform="translate(248.76 217.21)" fill="#fff" stroke="#602b8a" stroke-width="2"/></g><path d="M34.815,26.186c-.022-4.06,1.814-7.125,5.531-9.381-2.08-2.976-5.222-4.613-9.37-4.934-3.927-.31-8.22,2.29-9.791,2.29-1.659,0-5.465-2.179-8.452-2.179C6.56,12.081,0,16.9,0,26.717A27.573,27.573,0,0,0,1.593,35.7C3.009,39.76,8.12,49.716,13.452,49.551c2.788-.066,4.757-1.98,8.386-1.98,3.518,0,5.343,1.98,8.452,1.98,5.377-.078,10-9.127,11.35-13.2C34.428,32.956,34.815,26.4,34.815,26.186ZM28.553,8.021A10.419,10.419,0,0,0,31.208,0,11.731,11.731,0,0,0,23.7,3.861a10.583,10.583,0,0,0-2.832,7.954C23.752,12.036,26.385,10.554,28.553,8.021Z" transform="translate(29.052 24.717)"/></g><g transform="translate(99.629)"><g transform="matrix(1, 0, 0, 1, -160.63, -121.28)" filter="url(#f)"><circle cx="40.137" cy="40.137" r="40.137" transform="translate(160.63 121.28)" fill="#fff" stroke="#602b8a" stroke-width="2"/></g><path d="M231.751,250.737q9.466-1.448,18.957-2.752.006,8.312,0,16.62c-6.319.024-12.635.12-18.961.141Q231.745,257.737,231.751,250.737Zm-16.028,2.236c4.753-.733,9.525-1.366,14.3-1.962q.006,6.893.008,13.783c-4.768,0-9.537.068-14.306.056Zm10.441,32.4c.313-.2.712.216.53.53a.382.382,0,0,1-.593.148.407.407,0,0,1-.065-.571A.4.4,0,0,1,226.164,285.37Zm8.188-.041h.6v5.61h-.6c0-.2,0-.407-.017-.61a1.524,1.524,0,0,1-2.257.373,2.061,2.061,0,0,1-.593-1.671,2.143,2.143,0,0,1,.69-1.654,1.483,1.483,0,0,1,2.179.274c-.008-.774,0-1.547,0-2.32Zm-1.3,2.218a1.17,1.17,0,0,0-.9.969,2.05,2.05,0,0,0,.248,1.645,1.061,1.061,0,0,0,1.494.133,1.086,1.086,0,0,0,.1-.1,1.522,1.522,0,0,0,.351-1.066,1.808,1.808,0,0,0-.229-1.184,1.056,1.056,0,0,0-1.067-.4ZM218.7,285.627c.225,0,.451,0,.677,0,.352,1.271.7,2.543,1.051,3.814a5.375,5.375,0,0,1,.164.816c.367-1.56.868-3.087,1.289-4.634l.586,0c.31,1.1.6,2.208.906,3.31a8.933,8.933,0,0,1,.306,1.325c.332-1.558.8-3.085,1.18-4.633.222,0,.445,0,.667,0-.485,1.772-.991,3.54-1.481,5.31h-.723c-.356-1.271-.708-2.544-1.068-3.813a3.244,3.244,0,0,1-.1-.63,5.319,5.319,0,0,1-.1.548c-.364,1.3-.732,2.587-1.086,3.884-.241.013-.481.014-.721.012Q219.471,288.284,218.7,285.627Zm9.53,2.117a1.44,1.44,0,0,1,1.792-.61,1.374,1.374,0,0,1,.721,1.3c.028.834.005,1.668.012,2.5h-.6c-.009-.8.021-1.6-.014-2.4a.966.966,0,0,0-.616-.975,1.056,1.056,0,0,0-1.28,1c-.018.792,0,1.586-.007,2.379h-.6q0-1.9,0-3.807h.6C228.239,287.336,228.238,287.54,228.232,287.745Zm9.059-.706a1.942,1.942,0,0,1,1.533.425,2.119,2.119,0,0,1,.565,1.668,2.047,2.047,0,0,1-.6,1.454,1.893,1.893,0,0,1-2.862-.443,2.34,2.34,0,0,1,.42-2.7,2.146,2.146,0,0,1,.942-.406Zm-.108.545c-.883.272-1.032,1.425-.757,2.183a1.229,1.229,0,0,0,1.689.657,1.285,1.285,0,0,0,.645-1.09,1.9,1.9,0,0,0-.35-1.463,1.2,1.2,0,0,0-1.229-.288Zm9.225-.547a2.564,2.564,0,0,1,1.112.148c.1.187.022.432.045.64a1.451,1.451,0,0,0-1.461-.163.516.516,0,0,0-.024.86c.438.284.994.358,1.383.722a1,1,0,0,1-.056,1.42.989.989,0,0,1-.121.1,2.179,2.179,0,0,1-2.053.054c0-.225,0-.449-.005-.673a1.652,1.652,0,0,0,1.638.293.519.519,0,0,0,.179-.711.524.524,0,0,0-.125-.141c-.438-.323-1.038-.373-1.427-.776a.991.991,0,0,1,.081-1.4l.032-.027a1.869,1.869,0,0,1,.8-.343Zm-20.374.1h.6v3.807h-.6v-3.806Zm13.605,0h.628c.248.906.489,1.815.743,2.721a2.787,2.787,0,0,1,.088.523c.284-1.092.642-2.164.964-3.245l.548,0c.275,1.082.618,2.148.846,3.241.236-1.087.569-2.15.832-3.231.2-.01.4-.013.605-.015-.382,1.269-.748,2.543-1.131,3.81h-.623c-.271-1.032-.621-2.044-.841-3.087-.262,1.042-.624,2.056-.922,3.087h-.6c-.378-1.271-.763-2.537-1.135-3.809ZM215.723,266.3c4.764-.016,9.529.061,14.293.052,0,4.607.012,9.215,0,13.823-4.76-.706-9.529-1.322-14.3-1.967Zm16,.184h18.985q.012,8.288,0,16.58-9.467-1.413-18.957-2.68Q231.739,273.431,231.723,266.48Z" transform="translate(-193.082 -229.379)" fill="#0093d6"/></g><g transform="translate(122.09 174.579)" fill="#fff" stroke="#e6cdf8" stroke-width="3"><ellipse cx="17" cy="16.5" rx="17" ry="16.5" stroke="none"/><ellipse cx="17" cy="16.5" rx="15.5" ry="15" fill="none"/></g><g transform="translate(130.09 181.579)" fill="#fff" stroke="#e6cdf8" stroke-width="3"><ellipse cx="9" cy="9.5" rx="9" ry="9.5" stroke="none"/><ellipse cx="9" cy="9.5" rx="7.5" ry="8" fill="none"/></g></g><g transform="translate(-6187.11 9245.39)"><line y2="73" transform="translate(0 7)" fill="none" stroke="#602b8a" stroke-linecap="round" stroke-width="4" stroke-dasharray="0 8"/><line x2="55" fill="none" stroke="#602b8a" stroke-linecap="round" stroke-width="4" stroke-dasharray="0 8"/></g><g transform="translate(-6363.61 9745.89)"><rect width="140" height="80" rx="10" fill="#602b8a"/><text transform="translate(70 49.5)" fill="#fff" font-size="26" font-family="Pretendard-ExtraBold, Pretendard" font-weight="800"><tspan x="-46.839" y="0">W-Hive</tspan></text></g><g transform="translate(-6246.11 9705.89)"><line y1="73" transform="translate(55)" fill="none" stroke="#602b8a" stroke-linecap="round" stroke-width="4" stroke-dasharray="0 8"/><line x1="55" transform="translate(0 80)" fill="none" stroke="#602b8a" stroke-linecap="round" stroke-width="4" stroke-dasharray="0 8"/></g></g></svg>