<svg xmlns="http://www.w3.org/2000/svg" width="58" height="58" viewBox="0 0 58 58">
  <g id="그룹_127382" data-name="그룹 127382" transform="translate(-1580 -394)">
    <rect id="사각형_25242" data-name="사각형 25242" width="58" height="58" transform="translate(1580 394)" fill="rgba(255,132,132,0)"/>
    <path id="합치기_39" data-name="합치기 39" d="M-3377.456-4932a5.391,5.391,0,0,1-3.935-1.6,5.334,5.334,0,0,1-1.609-3.915V-4938h-2a4.005,4.005,0,0,1-4-4v-17a4,4,0,0,1,4-4h2v-21.482a5.34,5.34,0,0,1,1.609-3.916,5.392,5.392,0,0,1,3.935-1.6h24.356l16.1,16.026v36.455a5.335,5.335,0,0,1-1.611,3.915,5.387,5.387,0,0,1-3.933,1.6Zm-.944-5.518a.9.9,0,0,0,.294.645.907.907,0,0,0,.65.293h34.912a.9.9,0,0,0,.649-.293.9.9,0,0,0,.3-.645v-34.166h-13.8v-13.737h-22.056a.914.914,0,0,0-.65.293.908.908,0,0,0-.294.646V-4963h30.4a4,4,0,0,1,4,4v17a4.005,4.005,0,0,1-4,4h-30.4Zm0,0v0ZM-3385-4942h37v-17h-37Zm23.864-7.984c.016-3.834,2.323-6.032,5.271-6.016a4.567,4.567,0,0,1,4.771,3.967h-2.651a1.958,1.958,0,0,0-2.089-1.554c-1.607-.017-2.636,1.29-2.651,3.57.015,2.28,1,3.586,2.651,3.6a2.072,2.072,0,0,0,2.338-2.083h-2.214v-2.05H-3351v1.554a4.616,4.616,0,0,1-4.833,4.992C-3358.983-4944-3361.119-4946.3-3361.135-4949.984Zm-11.881-.032c.015-3.851,2.277-6,5.239-5.984,2.963-.016,5.255,2.133,5.271,5.984-.016,3.868-2.308,6.016-5.271,6.016S-3373-4946.166-3373.016-4950.016Zm2.65,0c.016,2.331,1,3.586,2.589,3.6,1.622-.017,2.6-1.272,2.62-3.6-.016-2.314-1-3.587-2.62-3.57h-.03C-3369.381-4953.587-3370.35-4952.316-3370.366-4950.016Zm-10.634,5.851v-11.7h2.589v9.454h4.615v2.248Z" transform="translate(4969 5384)" fill="#526796"/>
  </g>
</svg>
