<svg xmlns="http://www.w3.org/2000/svg" width="92.671" height="30.511" viewBox="0 0 92.671 30.511">
  <g id="로고" transform="translate(2.28 2.267)">
    <g id="그룹_8706" data-name="그룹 8706">
      <g id="그룹_8700" data-name="그룹 8700" transform="translate(32.715 6.238)">
        <g id="그룹_8699" data-name="그룹 8699" transform="translate(24.584)">
          <path id="패스_24447" data-name="패스 24447" d="M901.486,135.12v11.691h-2.611v-4.748h-5.164v4.748H891.1V135.12h2.611v4.634h5.164V135.12Z" transform="translate(-891.1 -134.345)" fill="#602b8a"/>
          <path id="패스_24448" data-name="패스 24448" d="M1058.947,125.8a1.564,1.564,0,1,1-1.564-1.564A1.515,1.515,0,0,1,1058.947,125.8Zm-.287,10.931h-2.554V128.3h2.554Z" transform="translate(-1044.087 -124.24)" fill="#602b8a"/>
          <path id="패스_24449" data-name="패스 24449" d="M1115.269,181.23l-3.227,8.406h-2.654l-3.228-8.406h2.769l1.879,5.48,1.879-5.48Z" transform="translate(-1090.841 -177.17)" fill="#602b8a"/>
          <path id="패스_24450" data-name="패스 24450" d="M1232.83,182.824a4.375,4.375,0,1,1,8.75,0,5.659,5.659,0,0,1-.058.818h-6.154a1.776,1.776,0,0,0,1.836,1.535,1.73,1.73,0,0,0,1.549-.66h2.568a4.043,4.043,0,0,1-4.117,2.711A4.218,4.218,0,0,1,1232.83,182.824Zm6.254-.832a1.788,1.788,0,0,0-1.879-1.549,1.76,1.76,0,0,0-1.851,1.549Z" transform="translate(-1208.488 -174.561)" fill="#602b8a"/>
        </g>
        <path id="패스_24451" data-name="패스 24451" d="M562.19,135.12l-3.371,11.691H556.18l-2.094-7.331-2.094,7.331h-2.64L545.98,135.12h2.8l2.008,7.646,2.008-7.646H555.5l1.994,7.618,2.023-7.618h2.668Z" transform="translate(-545.98 -134.345)" fill="#602b8a"/>
        <path id="패스_24452" data-name="패스 24452" d="M806.81,205.4h2v2.152h-2Z" transform="translate(-788.231 -199.619)" fill="#602b8a"/>
      </g>
      <g id="그룹_8701" data-name="그룹 8701">
        <rect id="사각형_4353" data-name="사각형 4353" width="16.575" height="16.575" transform="translate(1.255 12.989) rotate(-45)" fill="none" stroke="#8ecae9" stroke-miterlimit="10" stroke-width="5" opacity="0.08"/>
        <rect id="사각형_4354" data-name="사각형 4354" width="26" height="26" rx="4" fill="#602b8a"/>
        <path id="패스_24453" data-name="패스 24453" d="M31.85,19.95,20.13,31.67,31.85,43.39,43.57,31.67ZM20.817,31.67,31.85,20.637,42.883,31.67,31.85,42.7Z" transform="translate(-18.85 -18.682)" fill="#764195"/>
      </g>
      <g id="그룹_8702" data-name="그룹 8702" transform="translate(12.591 5.389)">
        <path id="패스_24454" data-name="패스 24454" d="M213.824,107.971v-5.539h-3.386v5.539H206.52V93.25h3.919v5.406h3.386V93.25h3.919v14.721Z" transform="translate(-205.98 -92.71)" fill="#fffdfd"/>
        <path id="패스_24455" data-name="패스 24455" d="M209.252,85.832V99.471h-2.837V93.931h-4.467v5.539h-2.837V85.832h2.837v5.405h4.467V85.832h2.837m1.082-1.082h-5v5.405h-2.3V84.75h-5v15.8h5V95.012h2.3v5.539h5V84.75Z" transform="translate(-198.03 -84.75)" fill="#602b8a"/>
      </g>
      <g id="그룹_8705" data-name="그룹 8705" transform="translate(1.741 11.892)">
        <g id="그룹_8703" data-name="그룹 8703">
          <path id="패스_24456" data-name="패스 24456" d="M41.628,199.928l-.172-1.888H39.45l.4,4.327A5.729,5.729,0,0,1,41.628,199.928Z" transform="translate(-38.683 -197.34)" fill="#edb9d1"/>
          <path id="패스_24457" data-name="패스 24457" d="M30.154,187.73l.172,1.888a5.724,5.724,0,0,0-1.778,2.439l-.4-4.327h2.007m.639-.7H27.38l.071.764.4,4.327.263,2.843,1.082-2.642a5.056,5.056,0,0,1,1.549-2.143l.315-.234-.036-.391-.172-1.888-.058-.636h0Z" transform="translate(-27.38 -187.03)" fill="#602b8a"/>
        </g>
        <g id="그룹_8704" data-name="그룹 8704" transform="translate(0.565 0.005)">
          <path id="패스_24458" data-name="패스 24458" d="M57.447,198.13H55.532a6.389,6.389,0,0,1-.055,2.168c-.249,1.452-.788,2.57-1.2,2.5-.1-.018-.191-.108-.259-.257-.036-.163-.078-.322-.127-.473a2.514,2.514,0,0,0-1.779-1.914,1.564,1.564,0,0,0-.162-.019c-1.45-.1-2.922,1.694-3.339,4.13q-.041.24-.067.477h2c.007-.045.014-.09.022-.135.249-1.452.788-2.57,1.2-2.5.119.02.215.136.285.323q.037.16.084.313a2.555,2.555,0,0,0,1.8,2l.011,0c1.5.246,3.059-1.591,3.491-4.113a7.108,7.108,0,0,0,0-2.5Z" transform="translate(-47.76 -197.429)" fill="#edb9d1"/>
          <path id="패스_24459" data-name="패스 24459" d="M45.957,187.811a7.108,7.108,0,0,1,0,2.5c-.406,2.369-1.808,4.134-3.219,4.134a1.631,1.631,0,0,1-.271-.022l-.011,0a2.556,2.556,0,0,1-1.8-2q-.046-.153-.084-.313c-.071-.188-.167-.3-.285-.323a.259.259,0,0,0-.038,0c-.411,0-.926,1.094-1.167,2.5-.008.045-.015.09-.022.135h-2q.026-.237.067-.477c.406-2.369,1.808-4.134,3.219-4.134.04,0,.08,0,.12,0s.108.01.162.019a2.514,2.514,0,0,1,1.779,1.914c.048.151.09.31.127.473.067.148.155.239.259.257a.259.259,0,0,0,.038,0c.411,0,.926-1.094,1.167-2.5a6.356,6.356,0,0,0,.055-2.168h1.915m.58-.7H43.185l.172.84a5.7,5.7,0,0,1-.059,1.909,7.217,7.217,0,0,1-.354,1.338,3.038,3.038,0,0,0-2.207-2.056,2.191,2.191,0,0,0-.23-.027c-.056,0-.114-.006-.17-.006a3.321,3.321,0,0,0-2.538,1.447,7.391,7.391,0,0,0-1.371,3.269c-.029.172-.054.347-.072.519l-.085.776h3.383l.092-.592c.006-.041.013-.083.02-.125a7.227,7.227,0,0,1,.361-1.357,3.033,3.033,0,0,0,2.209,2.061l.022,0a2.354,2.354,0,0,0,.378.031,3.321,3.321,0,0,0,2.538-1.447,7.391,7.391,0,0,0,1.371-3.269,7.835,7.835,0,0,0,0-2.745l-.107-.57h0Z" transform="translate(-36.27 -187.11)" fill="#602b8a"/>
        </g>
      </g>
    </g>
  </g>
</svg>
