<svg xmlns="http://www.w3.org/2000/svg" width="58" height="58" viewBox="0 0 58 58">
  <g id="그룹_127394" data-name="그룹 127394" transform="translate(-69 -394)">
    <rect id="사각형_25242" data-name="사각형 25242" width="58" height="58" transform="translate(69 394)" fill="rgba(255,132,132,0)"/>
    <path id="dataset_FILL0_wght300_GRAD0_opsz24" d="M151.913-777.911H163.03v-11.117H151.913Zm19.059,0h11.118v-11.117H170.972ZM151.913-796.97H163.03v-11.117H151.913Zm19.059,0h11.118v-11.117H170.972ZM145.743-766a5.543,5.543,0,0,1-4.075-1.668A5.543,5.543,0,0,1,140-771.741v-42.516a5.542,5.542,0,0,1,1.668-4.074A5.543,5.543,0,0,1,145.743-820h42.516a5.543,5.543,0,0,1,4.074,1.668A5.542,5.542,0,0,1,194-814.257v42.516a5.543,5.543,0,0,1-1.668,4.074A5.543,5.543,0,0,1,188.259-766Zm0-4.765h42.516a.934.934,0,0,0,.672-.306.934.934,0,0,0,.305-.672v-42.516a.935.935,0,0,0-.305-.672.935.935,0,0,0-.672-.305H145.743a.935.935,0,0,0-.672.305.935.935,0,0,0-.305.672v42.516a.934.934,0,0,0,.305.672A.934.934,0,0,0,145.743-770.764Zm-.978-44.471v0Z" transform="translate(-69.001 1215.999)" fill="#526796"/>
  </g>
</svg>
