<svg xmlns="http://www.w3.org/2000/svg" width="10" height="9.75" viewBox="0 0 10 9.75">
  <g id="download" transform="translate(-1 -0.75)">
    <path id="패스_2786" data-name="패스 2786" d="M1.375,6a.375.375,0,0,1,.375.375V9a.75.75,0,0,0,.75.75h7A.75.75,0,0,0,10.25,9V6.375a.375.375,0,0,1,.75,0V9a1.5,1.5,0,0,1-1.5,1.5h-7A1.5,1.5,0,0,1,1,9V6.375A.375.375,0,0,1,1.375,6Z" fill="#353740" fill-rule="evenodd"/>
    <path id="패스_2787" data-name="패스 2787" d="M3.75,5.625a.375.375,0,0,1,.53,0L6,7.345l1.72-1.72a.375.375,0,1,1,.53.53L6.266,8.14a.375.375,0,0,1-.531,0L3.75,6.155A.375.375,0,0,1,3.75,5.625Z" fill="#353740" fill-rule="evenodd"/>
    <path id="패스_2788" data-name="패스 2788" d="M6,.75a.375.375,0,0,1,.375.375v6a.375.375,0,0,1-.75,0v-6A.375.375,0,0,1,6,.75Z" fill="#353740" fill-rule="evenodd"/>
  </g>
</svg>
