<svg xmlns="http://www.w3.org/2000/svg" width="10" height="10" viewBox="0 0 10 10">
  <g id="copy" transform="translate(-0.75 -0.75)">
    <path id="패스_2779" data-name="패스 2779" d="M10.143,3.714v6.429H3.714V3.714h6.429m0-.714H3.714A.714.714,0,0,0,3,3.714v6.429a.714.714,0,0,0,.714.714h6.429a.714.714,0,0,0,.714-.714V3.714A.714.714,0,0,0,10.143,3Z" transform="translate(-0.107 -0.107)" fill="#c5c5d2"/>
    <path id="패스_2780" data-name="패스 2780" d="M1.464,6.464H.75v-5A.714.714,0,0,1,1.464.75h5v.714h-5Z" fill="#c5c5d2"/>
  </g>
</svg>
