<svg id="회사로고" xmlns="http://www.w3.org/2000/svg" xmlns:xlink="http://www.w3.org/1999/xlink" width="131.307" height="20.157" viewBox="0 0 131.307 20.157">
  <defs>
    <linearGradient id="linear-gradient" x1="0.54" y1="0.477" x2="0.404" y2="-0.396" gradientUnits="objectBoundingBox">
      <stop offset="0" stop-color="#006fdf"/>
      <stop offset="1" stop-color="#3fa9f5"/>
    </linearGradient>
    <linearGradient id="linear-gradient-2" y1="0.5" x2="1" y2="0.5" gradientUnits="objectBoundingBox">
      <stop offset="0" stop-color="#114194"/>
      <stop offset="1" stop-color="#111259"/>
    </linearGradient>
  </defs>
  <g id="그룹_6118" data-name="그룹 6118" transform="translate(0 0.07)">
    <path id="패스_12126" data-name="패스 12126" d="M708.321,104.959l-.518-5.7h-6.059l1.206,13.064A17.293,17.293,0,0,1,708.321,104.959Z" transform="translate(-701.744 -99.259)" fill="url(#linear-gradient)"/>
  </g>
  <path id="패스_12127" data-name="패스 12127" d="M735.1,99.322h-5.782a19.24,19.24,0,0,1-.166,6.546c-.75,4.382-2.379,7.759-3.638,7.544-.315-.054-.577-.327-.781-.775-.108-.494-.235-.971-.381-1.428-1.009-3.152-2.906-5.359-5.371-5.781-.163-.028-.327-.047-.49-.058-4.379-.314-8.823,5.114-10.083,12.47q-.125.726-.2,1.441h6.049q.031-.2.066-.406c.75-4.382,2.379-7.76,3.638-7.544.359.061.649.41.863.976q.113.485.253.945c.988,3.282,2.919,5.592,5.446,6.025l.034.005c4.523.743,9.236-4.8,10.539-12.416A21.48,21.48,0,0,0,735.1,99.322Z" transform="translate(-706.461 -99.235)" fill="url(#linear-gradient-2)"/>
  <g id="그룹_6119" data-name="그룹 6119" transform="translate(33.657)">
    <path id="패스_12128" data-name="패스 12128" d="M828.961,117.774h4.505l-2.62,14.858h-4.505Z" transform="translate(-826.341 -112.703)" fill="#006fdf"/>
    <path id="패스_12129" data-name="패스 12129" d="M861.82,122.861c.327-1.854-.414-2.338-1.327-2.338-1.454,0-2.189,1.255-2.526,3.166l-1.469,8.327h-4.505l2.072-11.749a29.442,29.442,0,0,0,.434-3.109h4.106c-.058.656-.147,1.483-.323,2.481h.057a5,5,0,0,1,4.669-2.709c3.279,0,3.94,2.4,3.417,5.362l-1.715,9.724h-4.505Z" transform="translate(-845.065 -112.086)" fill="#006fdf"/>
    <path id="패스_12130" data-name="패스 12130" d="M916.938,120.893a8.309,8.309,0,0,0-3.481-.8c-1.169,0-1.783.57-1.873,1.083-.161.913.44,1.226,2.731,2.139,1.439.57,2.837,1.54,2.344,4.335-.583,3.308-3.29,4.591-6.284,4.591a14.3,14.3,0,0,1-4.75-.713l.728-3.479a6.463,6.463,0,0,0,3.526,1.027c2.11,0,2.383-.742,2.5-1.4s-1-.941-2.8-1.74a3.777,3.777,0,0,1-2.3-4.563c.281-1.6,1.925-4.449,6.345-4.449a12.585,12.585,0,0,1,4.029.6Z" transform="translate(-884.208 -112.086)" fill="#006fdf"/>
    <path id="패스_12131" data-name="패스 12131" d="M958.254,117.774l.3,10.58h.057l3.976-10.58h5.133l.159,10.58h.057l3.947-10.58h4.277l-6.583,14.858h-4.79l-.508-10.865h-.057l-4.2,10.865h-4.9l-1.372-14.858Z" transform="translate(-919.333 -112.703)" fill="#114194"/>
    <path id="패스_12132" data-name="패스 12132" d="M1033.9,117.87a19.46,19.46,0,0,1,4.956-.941c5.218,0,6.033,2.167,5.45,5.476l-.955,5.418c-.388,2.2-.535,3.194-.625,4.192h-4.106l.248-2.053h-.057c-.361.912-2.341,2.281-4.48,2.281-2.766,0-4.274-1.8-3.8-4.506.875-4.962,6.668-4.991,8.237-4.991h1.368c.5-2.852-1.607-2.852-2.263-2.852a8.792,8.792,0,0,0-4.366,1.312Zm5.868,6.987c-1.8,0-4.639.114-5.077,2.6-.342,1.939,1.226,1.939,1.6,1.939.4,0,2.69-.057,3.329-3.679Z" transform="translate(-975.312 -112.086)" fill="#114194"/>
    <path id="패스_12133" data-name="패스 12133" d="M1088.031,117.774h4.676l.872,10.58h.057l4.574-10.58h4.391l-7.268,14.858h-5.3Z" transform="translate(-1017.343 -112.703)" fill="#114194"/>
    <path id="패스_12134" data-name="패스 12134" d="M1151.16,125.77h-8.754c-.312,1.768.542,3.394,3.08,3.394a10.555,10.555,0,0,0,4.4-1.169l-.513,3.393a15.323,15.323,0,0,1-4.856.856c-5.218,0-6.97-3.165-6.17-7.7.7-3.992,3.681-7.614,7.929-7.614,1.34,0,6.444,0,5.076,7.757Zm-3.674-2.452c.332-1.882.159-3.65-1.694-3.65-2.31,0-2.812,2.852-2.953,3.65Z" transform="translate(-1053.932 -112.086)" fill="#114194"/>
    <path id="패스_12135" data-name="패스 12135" d="M837.286,99l-.764,4.334,4.823-1.8L841.791,99Z" transform="translate(-833.771 -99)" fill="#006fdf"/>
  </g>
</svg>
