<svg id="upload" xmlns="http://www.w3.org/2000/svg" width="10" height="9.485" viewBox="0 0 10 9.485">
  <path id="패스_2789" data-name="패스 2789" d="M1.375,6a.375.375,0,0,1,.375.375V9a.75.75,0,0,0,.75.75h7A.75.75,0,0,0,10.25,9V6.375a.375.375,0,0,1,.75,0V9a1.5,1.5,0,0,1-1.5,1.5h-7A1.5,1.5,0,0,1,1,9V6.375A.375.375,0,0,1,1.375,6ZM3.75,3.641a.375.375,0,0,0,.53,0L6,1.92,7.72,3.64a.375.375,0,1,0,.53-.531L6.265,1.125a.375.375,0,0,0-.531,0L3.75,3.109a.375.375,0,0,0,0,.531Z" transform="translate(-1 -1.015)" fill="#353740" fill-rule="evenodd"/>
  <path id="패스_2790" data-name="패스 2790" d="M6,1.5a.375.375,0,0,1,.375.375v6a.375.375,0,0,1-.75,0v-6A.375.375,0,0,1,6,1.5Z" transform="translate(-1 -1.015)" fill="#353740" fill-rule="evenodd"/>
</svg>
