<svg xmlns="http://www.w3.org/2000/svg" width="16" height="16" viewBox="0 0 16 16">
  <path id="합치기_16" data-name="합치기 16" d="M-4670.976-2789h-.382v-1.166l-.1-.043a.481.481,0,0,1,.1-.14v-.152h.358v.5l.909.417a.979.979,0,0,1-.1.17s0,0,0,0l0,0a0,0,0,0,1,0,0s0,0,0,0,0,0,0,0,0,0,0,0,0,0,0,0h0l0,0h0s0,0,0,0h0s0,0,0,0,0,0,0,0h0s0,0,0,0h0l0,0h0s0,0,0,0a0,0,0,0,0,0,0s0,0,0,0v0h0s0,0,0,0h0s0,0,0,0h0l0,0h0s0,0,0,0l0,0h0s0,0,0,0h0l0,0,0,0h0a0,0,0,0,1,0,0s0,0,0,0h0a1,1,0,0,1-.466.3,0,0,0,0,0,0,0h-.025l-.009,0h-.009s0,0,0,0h-.022a.006.006,0,0,0,0,0h0l-.011,0h-.015s0,0,0,0h-.043s0,0,0,0h-.1s0,0,0,0Zm-3.381,0v-1.5h1.5v1.5Zm-3,0v-1.5h1.5v1.5Zm-3,0v-1.5h1.5v1.5Zm-3,0v-1.5h1.5v1.5Zm-1.643,0h-.17s0,0,0,0h-.042s0,0,0,0h-.008s0,0,0,0h0s0,0,0,0h-.008s0,0,0,0h-.067s0,0,0,0h-.031a0,0,0,0,1,0,0h-.022s0,0,0,0h-.028s0,0,0,0h-.04s0,0,0,0h-.009s0,0,0,0h0l0,0h0l0,0h-.009s0,0,0,0h-.009s0,0,0,0,0,0,0,0,0,0,0,0,0,0,0,0,0,0,0,0h-.012s0,0,0,0,0,0,0,0h-.01s0,0,0,0h0s0,0,0,0h0a0,0,0,0,0,0,0h0s0,0,0,0h-.01l0,0h-.006l0,0h0s0,0,0,0a0,0,0,0,1,0,0h-.007a0,0,0,0,0,0,0h0s0,0,0,0h-.007s0,0,0,0h-.005v0h0l0,0h0s0,0,0,0h0s0,0,0,0h0l0,0h0s0,0,0,0h0l0,0s0,0,0,0h0l0,0h0s0,0,0,0,0,0,0,0h0s0,0,0,0h0l0,0h0l0,0h0v0h0s0,0,0,0h0l0,0h0l0,0h0s0,0,0,0h0l0,0h0l0,0h0s0,0,0,0a0,0,0,0,1,0,0l0,0h0v0l0,0s0,0,0,0l0,0h0s0,0,0,0,0,0,0,0l0,0h0l0,0v0s0,0,0,0h0s0,0,0,0l0,0h0l0,0h0l0,0h0s0,0,0,0l0,0a0,0,0,0,0,0,0v0l0,0s0,0,0,0l0,0s0,0,0,0h0s0,0,0,0,0,0,0,0,0,0,0,0l0,0v0h0s0,0,0,0,0,0,0,0h0s0,0,0,0l0,0a0,0,0,0,1,0,0s0,0,0,0,0,0,0,0,0,0,0,0h0v0l0,0h0s0,0,0,0,0,0,0,0,0,0,0,0h0a0,0,0,0,0,0,0s0,0,0,0h0a0,0,0,0,0,0,0,0,0,0,0,1,0,0s0,0,0,0v0a0,0,0,0,1,0,0l0,0s0,0,0,0,0,0,0,0a.005.005,0,0,0,0,0s0,0,0,0h0l0,0a0,0,0,0,1,0,0s0,0,0,0,0,0,0,0,0,0,0,0,0,0,0,0l0,0a0,0,0,0,0,0,0v0a0,0,0,0,0,0,0l0,0v0a0,0,0,0,1,0,0h0a0,0,0,0,1,0,0s0,0,0,0,0,0,0,0,0,0,0,0v0l0,0a.005.005,0,0,1,0,0h0a0,0,0,0,1,0,0l0,0s0,0,0,0,0,0,0,0,0,0,0,0a0,0,0,0,1,0,0s0,0,0,0v0h0v0s0,0,0,0,0,0,0,0l0,0s0,0,0,0l0,0v0s0,0,0,0,0,0,0,0h0s0,0,0,0,0,0,0,0,0,0,0,0,0,0,0,0,0,0,0,0,0,0,0,0a0,0,0,0,1,0,0s0,0,0,0v0s0,0,0,0,0,0,0,0a0,0,0,0,1,0,0l0,0v0l0,0v0s0,0,0,0v0s0,0,0,0a0,0,0,0,0,0,0v0a0,0,0,0,0,0,0,0,0,0,0,0,0,0,0,0,0,0,0,0,0,0,0,0,0,0,0,0v0a0,0,0,0,0,0,0s0,0,0,0a0,0,0,0,0,0,0v0s0,0,0,0l0,0v0a0,0,0,0,1,0,0v0a0,0,0,0,1,0,0s0,0,0,0,0,0,0,0a.01.01,0,0,0,0,0s0,0,0,0,0,0,0,0v0s0,0,0,0,0,0,0,0,0,0,0,0,0,0,0,0,0,0,0,0,0,0,0,0,0,0,0,0,0,0,0,0v0h0s0,0,0,0v0a0,0,0,0,0,0,0,0,0,0,0,0,0,0v0s0,0,0,0v0a0,0,0,0,1,0,0s0,0,0,0v-.009a0,0,0,0,0,0,0,0,0,0,0,0,0,0v0s0,0,0,0,0,0,0,0,0,0,0,0v0a0,0,0,0,1,0,0s0,0,0,0h0a.007.007,0,0,1,0,0s0,0,0,0v0s0,0,0,0,0,0,0,0v0s0,0,0,0,0,0,0,0a0,0,0,0,0,0,0v-.012a.007.007,0,0,1,0,0,0,0,0,0,1,0,0v0a0,0,0,0,0,0,0v0a.009.009,0,0,1,0,0,.006.006,0,0,0,0,0,0,0,0,0,0,0,0v-.007h0l0-.007v0h0a.132.132,0,0,0,0-.014l.977-.21v-.5h.143v.02a.5.5,0,0,1,.347.376l-.347.074V-2789Zm13.5-2.071v-1.5h1.5v1.5Zm-14.5-.216v-1.5h1.5v1.5Zm14.5-2.784v-1.5h1.5v1.5Zm-14.5-.216v-1.5h1.5v1.5Zm3.555-1.824v-1.778h8.89v1.778Zm10.945-.96v-1.5h1.5v1.5Zm-14.5-.216v-1.5h1.5v1.5Zm14.5-2.784v-1.5h1.5v1.5Zm-14.5-.216v-1.5h1.5v1.5Zm14.5-2.784v-.429h-1.5v-1.5h1.5v1h.5l.84-.541a.988.988,0,0,1,.154.449s0,0,0,.006v0a.011.011,0,0,1,0,0v.016s0,0,0,0v.01h0v.006h0v0h0v.006h0v0h0v.95Zm-14.5-.216v-.719h0v-.014h0v0h0v0h0v0h0s0,0,0,0h0v0h0v0h0v0h0v0h0v0h0v0h0v0s0,0,0,0h0v0h0v0h0v-.007h0a0,0,0,0,0,0,0v0h0v0h0v0h0a1,1,0,0,1,.122-.382s0,0,0-.006,0,0,0,0,0,0,0,0h0s0,0,0,0h0s0,0,0,0v0s0,0,0,0,0,0,0,0h0s0,0,0,0h0s0,0,0,0,0,0,0,0h0a0,0,0,0,1,0,0s0,0,0,0h0s0,0,0,0v0s0,0,0,0h0s0,0,0,0h0s0,0,0,0h0a.01.01,0,0,1,0-.005h0a.961.961,0,0,1,.133-.164l.706.708v-1h1.5v1.5h-1v.213ZM-4685-2804Zm9,.5v-1.5h1.5v1.5Zm-3,0v-1.5h1.5v1.5Zm-3,0v-1.5h1.5v1.5Z" transform="translate(4686 2805)" fill="#97a1bb"/>
</svg>
