<svg xmlns="http://www.w3.org/2000/svg" width="10" height="14" viewBox="0 0 10 14">
  <g id="ico_docu" transform="translate(-378 -1575)">
    <path id="패스_2816" data-name="패스 2816" d="M12.85,4.65l-3.5-3.5A.454.454,0,0,0,9,1H4A1,1,0,0,0,3,2V14a1,1,0,0,0,1,1h8a1,1,0,0,0,1-1V5A.454.454,0,0,0,12.85,4.65ZM9,2.2,11.8,5H9ZM12,14H4V2H8V5A1,1,0,0,0,9,6h3Z" transform="translate(375 1574)" fill="#97a1bb"/>
    <path id="패스_2817" data-name="패스 2817" d="M5,11h6v1H5Z" transform="translate(375 1574)" fill="#97a1bb"/>
    <path id="패스_2818" data-name="패스 2818" d="M5,8h6V9H5Z" transform="translate(375 1574)" fill="#97a1bb"/>
  </g>
</svg>
