<svg xmlns="http://www.w3.org/2000/svg" width="13.007" height="11.374" viewBox="0 0 13.007 11.374">
  <g id="ico_warning" transform="translate(0.002 0)">
    <path id="패스_114" data-name="패스 114" d="M7.3,2.708a.918.918,0,0,0-1.592,0L.134,12.185a.948.948,0,0,0,.8,1.436H12.07a.948.948,0,0,0,.8-1.436ZM6.5,5.5a.735.735,0,0,0-.731.808l.284,2.849a.448.448,0,0,0,.894,0L7.23,6.306A.735.735,0,0,0,6.5,5.5Zm0,4.874a.809.809,0,1,0,.575.237.812.812,0,0,0-.575-.237Z" transform="translate(-0.001 -2.247)" fill="#ff8419" fill-rule="evenodd"/>
  </g>
</svg>
