<svg xmlns="http://www.w3.org/2000/svg" width="16" height="16" viewBox="0 0 16 16">
  <path id="합치기_15" data-name="합치기 15" d="M-4670.976-2789h-.382v-1.166l-.1-.043a.476.476,0,0,1,.1-.14v-.152h.358v.5l.909.417a.97.97,0,0,1-.1.171s0,0,0,0l0,0a.005.005,0,0,1,0,0s0,0,0,0,0,0,0,0,0,0,0,0,0,0,0,0h0l0,0a0,0,0,0,1,0,0s0,0,0,0h0s0,0,0,0,0,0,0,0h0s0,0,0,0h0l0,0a0,0,0,0,1,0,0s0,0,0,0a0,0,0,0,0,0,0h0l0,0h0s0,0,0,0h0s0,0,0,0h0l0,0h0s0,0,0,0l0,0h0s0,0,0,0h0l0,0,0,0s0,0,0,0,0,0,0,0,0,0,0,0h0a1,1,0,0,1-.466.3s0,0,0,0h-.025l-.008,0h-.009a0,0,0,0,0,0,0h-.022s0,0-.005,0h0l-.01,0h-.015s0,0,0,0h-.033s0,0,0,0h-.017s0,0,0,0h-.06s0,0,0,0h-.029s0,0,0,0Zm-3.382,0v-1.5h1.5v1.5Zm-3,0v-1.5h1.5v1.5Zm-3,0v-1.5h1.5v1.5Zm-3,0v-1.5h1.5v1.5Zm-1.643,0h-.121s0,0,0,0h-.052a0,0,0,0,1,0,0h-.026s0,0,0,0h-.008s0,0,0,0h-.025s0,0,0,0h-.1a0,0,0,0,1,0,0h0s0,0,0,0h0s0,0,0,0h-.005a0,0,0,0,0,0,0h-.006s0,0,0,0h-.02s0,0,0,0h-.005s0,0,0,0h-.009s0,0,0,0h-.009s0,0,0,0h-.005s0,0,0,0h-.009s0,0,0,0h-.009s0,0,0,0h0l0,0h0l0,0h0s0,0,0,0h-.015s0,0,0,0,0,0,0,0h0s0,0,0,0,0,0,0,0,0,0,0,0h-.009s0,0,0,0l0,0s0,0,0,0h-.008s0,0,0,0h0s0,0,0,0h0a0,0,0,0,0,0,0h0s0,0,0,0h-.009l0,0h-.006l0,0h0s0,0,0,0,0,0,0,0h-.007a0,0,0,0,0,0,0h0s0,0,0,0h-.006s0,0,0,0h0l0,0h0l0,0h0s0,0,0,0h0s0,0,0,0h0l0,0s0,0,0,0h0s0,0,0,0h0l0,0s0,0,0,0h0l0,0h0s0,0,0,0l0,0a0,0,0,0,0,0,0s0,0,0,0h0l0,0h0s0,0,0,0h0s0,0,0,0v0h0l0,0h0l0,0h0s0,0,0,0h0s0,0,0,0h0s0,0,0,0h0l0,0h0a0,0,0,0,0,0,0h0s0,0,0,0h0v0s0,0,0,0,0,0,0,0l0,0h0s0,0,0,0,0,0,0,0l0,0h0l0,0s0,0,0,0,0,0,0,0h0s0,0,0,0,0,0,0,0h0l0,0h0l0,0h0s0,0,0,0l0,0a0,0,0,0,0,0,0v0l0,0s0,0,0,0l0,0s0,0,0,0h0s0,0,0,0,0,0,0,0a0,0,0,0,1,0,0l0,0v0h0s0,0,0,0,0,0,0,0h0v0s0,0,0,0,0,0,0,0,0,0,0,0,0,0,0,0,0,0,0,0h0s0,0,0,0l0,0h0s0,0,0,0v0s0,0,0,0h0a0,0,0,0,0,0,0l0,0s0,0,0,0,0,0,0,0a0,0,0,0,1,0,0s0,0,0,0v0s0,0,0,0,0,0,0,0,0,0,0,0,0,0,0,0a0,0,0,0,0,0,0,0,0,0,0,1,0,0,0,0,0,0,1,0,0l0,0a0,0,0,0,1,0,0l0,0a0,0,0,0,0,0,0s0,0,0,0,0,0,0,0l0,0a0,0,0,0,0,0,0v0a0,0,0,0,0,0,0l0,0v0a0,0,0,0,1,0,0h0a0,0,0,0,1,0,0s0,0,0,0,0,0,0,0,0,0,0,0,0,0,0,0,0,0,0,0a0,0,0,0,1,0,0h0a.007.007,0,0,1,0,0l0,0s0,0,0,0,0,0,0,0a.006.006,0,0,1,0,0,0,0,0,0,1,0,0s0,0,0,0,0,0,0,0h0s0,0,0,0,0,0,0,0,0,0,0,0l0,0v0s0,0,0,0v0s0,0,0,0,0,0,0,0,0,0,0,0a0,0,0,0,1,0,0s0,0,0,0,0,0,0,0,0,0,0,0,0,0,0,0a0,0,0,0,0,0,0s0,0,0,0a0,0,0,0,1,0,0s0,0,0,0v0s0,0,0,0,0,0,0,0a0,0,0,0,1,0,0l0,0v0l0,0v0l0,0v0s0,0,0,0a0,0,0,0,0,0,0v0l0,0a0,0,0,0,0,0,0,0,0,0,0,0,0,0,0,0,0,0,0,0,0v0a0,0,0,0,0,0,0,0,0,0,0,0,0,0s0,0,0,0v0s0,0,0,0l0,0v0s0,0,0,0,0,0,0,0a.005.005,0,0,0,0,0v0s0,0,0,0v0s0,0,0,0,0,0,0,0v0s0,0,0,0,0,0,0,0,0,0,0,0,0,0,0,0,0,0,0,0,0,0,0,0a0,0,0,0,0,0,0s0,0,0,0v0h0s0,0,0,0a0,0,0,0,0,0,0,0,0,0,0,0,0,0,0,0,0,0,0,0,0v0s0,0,0,0v0a0,0,0,0,1,0,0s0,0,0,0a.005.005,0,0,1,0,0v-.007a0,0,0,0,0,0,0,0,0,0,0,0,0,0v0s0,0,0,0,0,0,0,0,0,0,0,0v0s0,0,0,0,0,0,0,0h0s0,0,0,0,0,0,0,0a0,0,0,0,0,0,0v0s0,0,0,0,0,0,0,0v0s0,0,0,0,0,0,0,0a.008.008,0,0,0,0,0v0s0,0,0,0v0a.009.009,0,0,1,0,0v0s0,0,0,0a0,0,0,0,1,0,0v0a0,0,0,0,0,0,0,0,0,0,0,0,0,0v0a.016.016,0,0,1,0,0,.005.005,0,0,0,0,0,0,0,0,0,0,0,0v-.007h0a.012.012,0,0,1,0-.007v0h0l0-.014.977-.211v-.5h.143v.02a.5.5,0,0,1,.347.376l-.347.074V-2789Zm13.5-2.072v-1.5h1.5v1.5Zm-14.5-.216v-1.5h1.5v1.5Zm7.111-1.491v-3.555h-3.556v-1.778h3.556v-3.555h1.777v3.555h3.557v1.778h-3.557v3.555Zm7.39-1.293v-1.5h1.5v1.5Zm-14.5-.216v-1.5h1.5v1.5Zm14.5-2.784v-1.5h1.5v1.5Zm-14.5-.216v-1.5h1.5v1.5Zm14.5-2.784v-1.5h1.5v1.5Zm-14.5-.216v-1.5h1.5v1.5Zm14.5-2.784v-.429h-1.5v-1.5h1.5v1h.5l.84-.541a.982.982,0,0,1,.154.449s0,0,0,.006v0a.022.022,0,0,1,0,0v.017s0,0,0,0v.01h0v.006h0v0h0v.006h0v0h0v.95Zm-14.5-.216v-.719h0v-.014h0v0h0v0h0v0h0s0,0,0,0h0v0h0v0h0v0h0v0h0v0h0v0h0v0a0,0,0,0,1,0,0h0v0h0v0h0v-.007h0s0,0,0,0v0h0v0h0v0h0a1,1,0,0,1,.121-.382s0,0,0-.006,0,0,0,0,0,0,0,0h0s0,0,0,0h0v0s0,0,0,0,0,0,0,0h0a0,0,0,0,0,0,0h0s0,0,0,0h0a0,0,0,0,1,0,0h0a0,0,0,0,1,0,0h0s0,0,0,0h0v0s0,0,0,0h0s0,0,0,0h0s0,0,0,0h0a.013.013,0,0,1,0-.005h0a.951.951,0,0,1,.133-.164l.705.708v-1h1.5v1.5h-1v.213ZM-4685-2804Zm9,.5v-1.5h1.5v1.5Zm-3,0v-1.5h1.5v1.5Zm-3,0v-1.5h1.5v1.5Z" transform="translate(4686 2805)" fill="#97a1bb"/>
</svg>
