<svg xmlns="http://www.w3.org/2000/svg" width="12" height="11.56" viewBox="0 0 12 11.56">
  <path id="hub_FILL0_wght600_GRAD0_opsz48" d="M-16.217-971.615a1.458,1.458,0,0,1-1.075-.447,1.476,1.476,0,0,1-.444-1.079,1.461,1.461,0,0,1,.445-1.075,1.466,1.466,0,0,1,1.074-.444,1.72,1.72,0,0,1,.311.027,1.249,1.249,0,0,1,.269.08l.926-1.178a2.154,2.154,0,0,1-.328-.617,1.479,1.479,0,0,1-.067-.709l-1.338-.488a1.382,1.382,0,0,1-.513.482,1.505,1.505,0,0,1-.735.175,1.473,1.473,0,0,1-1.078-.445,1.46,1.46,0,0,1-.447-1.074,1.481,1.481,0,0,1,.447-1.082,1.465,1.465,0,0,1,1.079-.451,1.452,1.452,0,0,1,1.075.451,1.488,1.488,0,0,1,.444,1.083v.027l1.343.5a1.689,1.689,0,0,1,.519-.572,2.2,2.2,0,0,1,.655-.294v-1.438a1.479,1.479,0,0,1-.779-.557,1.492,1.492,0,0,1-.311-.909,1.478,1.478,0,0,1,.447-1.079,1.465,1.465,0,0,1,1.079-.451,1.463,1.463,0,0,1,1.078.451,1.479,1.479,0,0,1,.447,1.079,1.484,1.484,0,0,1-.314.909,1.493,1.493,0,0,1-.777.557v1.441a2.179,2.179,0,0,1,.661.3,1.806,1.806,0,0,1,.535.568l1.322-.5v-.028a1.484,1.484,0,0,1,.445-1.082,1.454,1.454,0,0,1,1.074-.451,1.475,1.475,0,0,1,1.082.451,1.476,1.476,0,0,1,.451,1.082,1.452,1.452,0,0,1-.451,1.075,1.49,1.49,0,0,1-1.084.443,1.536,1.536,0,0,1-.738-.175,1.313,1.313,0,0,1-.515-.489l-1.331.492a1.751,1.751,0,0,1-.068.715,1.816,1.816,0,0,1-.327.614l.933,1.192a1.155,1.155,0,0,1,.265-.09,1.455,1.455,0,0,1,.3-.03,1.478,1.478,0,0,1,1.085.445A1.462,1.462,0,0,1-8.7-973.14a1.467,1.467,0,0,1-.449,1.078,1.471,1.471,0,0,1-1.077.447,1.472,1.472,0,0,1-1.078-.446,1.47,1.47,0,0,1-.447-1.082,1.509,1.509,0,0,1,.069-.472,1.734,1.734,0,0,1,.19-.4l-.919-1.171a1.876,1.876,0,0,1-.817.184,1.823,1.823,0,0,1-.808-.184L-14.951-974a1.773,1.773,0,0,1,.19.393,1.453,1.453,0,0,1,.069.466,1.47,1.47,0,0,1-.447,1.082,1.473,1.473,0,0,1-1.079.446Zm-1.475-6.143a.624.624,0,0,0,.459-.19.63.63,0,0,0,.19-.462.617.617,0,0,0-.19-.459.636.636,0,0,0-.462-.186.623.623,0,0,0-.459.187.629.629,0,0,0-.186.462.63.63,0,0,0,.187.459A.623.623,0,0,0-17.692-977.758Zm1.475,5.267a.626.626,0,0,0,.462-.187.629.629,0,0,0,.186-.462.63.63,0,0,0-.187-.459.623.623,0,0,0-.462-.19.621.621,0,0,0-.462.19.632.632,0,0,0-.186.459.627.627,0,0,0,.187.462A.629.629,0,0,0-16.217-972.492Zm3-8.5a.621.621,0,0,0,.462-.19.632.632,0,0,0,.186-.459.627.627,0,0,0-.187-.462.629.629,0,0,0-.462-.186.627.627,0,0,0-.462.187.629.629,0,0,0-.186.462.63.63,0,0,0,.187.459A.623.623,0,0,0-13.221-980.994Zm0,5.042a.892.892,0,0,0,.662-.277.918.918,0,0,0,.272-.667.9.9,0,0,0-.272-.662.906.906,0,0,0-.666-.272.913.913,0,0,0-.662.272.9.9,0,0,0-.278.666.9.9,0,0,0,.277.662A.908.908,0,0,0-13.216-975.952Zm2.991,3.461a.626.626,0,0,0,.462-.187.629.629,0,0,0,.186-.462.63.63,0,0,0-.187-.459.623.623,0,0,0-.462-.19.621.621,0,0,0-.462.19.632.632,0,0,0-.186.459.627.627,0,0,0,.187.462A.629.629,0,0,0-10.225-972.492Zm1.479-5.267a.617.617,0,0,0,.459-.19.636.636,0,0,0,.186-.462.623.623,0,0,0-.187-.459.629.629,0,0,0-.462-.186.63.63,0,0,0-.459.187.623.623,0,0,0-.19.462.624.624,0,0,0,.19.459A.63.63,0,0,0-8.747-977.758ZM-13.221-981.643ZM-17.692-978.407ZM-13.221-976.891ZM-8.75-978.407ZM-16.217-973.14ZM-10.226-973.14Z" transform="translate(19.218 983.175)" fill="#3a4561"/>
</svg>
