<svg xmlns="http://www.w3.org/2000/svg" width="12" height="12" viewBox="0 0 12 12">
  <path id="alarm_smart_wake_FILL0_wght400_GRAD0_opsz48" d="M54.325-859.545a.478.478,0,0,0,.356-.145.493.493,0,0,0,.142-.359.478.478,0,0,0-.145-.356.493.493,0,0,0-.359-.142.478.478,0,0,0-.356.145.493.493,0,0,0-.142.359.478.478,0,0,0,.145.356A.493.493,0,0,0,54.325-859.545Zm2.674,0a.478.478,0,0,0,.356-.145.493.493,0,0,0,.142-.359.478.478,0,0,0-.145-.356.493.493,0,0,0-.359-.142.478.478,0,0,0-.356.145.493.493,0,0,0-.142.359.478.478,0,0,0,.145.356A.493.493,0,0,0,57-859.545Zm2.674,0a.478.478,0,0,0,.356-.145.493.493,0,0,0,.142-.359.478.478,0,0,0-.145-.356.493.493,0,0,0-.359-.142.478.478,0,0,0-.356.145.493.493,0,0,0-.142.359.478.478,0,0,0,.145.356A.493.493,0,0,0,59.673-859.545Zm-2.694,5.482a5.868,5.868,0,0,1-2.331-.468,6,6,0,0,1-1.905-1.279,6.114,6.114,0,0,1-1.287-1.905,5.81,5.81,0,0,1-.476-2.344,5.783,5.783,0,0,1,.476-2.34,6.232,6.232,0,0,1,1.287-1.91,5.931,5.931,0,0,1,1.905-1.287,5.87,5.87,0,0,1,2.331-.468,5.87,5.87,0,0,1,2.331.468,6.029,6.029,0,0,1,1.914,1.287,6.04,6.04,0,0,1,1.287,1.91,5.872,5.872,0,0,1,.468,2.34,5.9,5.9,0,0,1-.468,2.344,5.929,5.929,0,0,1-1.287,1.905,6.1,6.1,0,0,1-1.914,1.279A5.868,5.868,0,0,1,56.979-854.063ZM56.979-860.03Zm0,4.964a4.82,4.82,0,0,0,3.542-1.455,4.823,4.823,0,0,0,1.454-3.543,4.82,4.82,0,0,0-1.455-3.542,4.823,4.823,0,0,0-3.543-1.454,4.82,4.82,0,0,0-3.542,1.455,4.823,4.823,0,0,0-1.454,3.543,4.82,4.82,0,0,0,1.455,3.543A4.824,4.824,0,0,0,56.98-855.066Z" transform="translate(-50.979 866.063)" fill="#fff"/>
</svg>
