<svg xmlns="http://www.w3.org/2000/svg" width="11.943" height="12" viewBox="0 0 11.943 12">
  <path id="settings_account_box_FILL0_wght400_GRAD0_opsz48" d="M87.086-868a.827.827,0,0,1-.607-.25.827.827,0,0,1-.25-.607v-4a.827.827,0,0,1,.25-.607.827.827,0,0,1,.607-.25h4a.827.827,0,0,1,.607.25.827.827,0,0,1,.25.607v4a.827.827,0,0,1-.25.607.827.827,0,0,1-.607.25Zm0-.857h4v-.457a2.68,2.68,0,0,0-.871-.707,2.433,2.433,0,0,0-1.129-.264,2.433,2.433,0,0,0-1.129.264,2.68,2.68,0,0,0-.871.707Zm2-2a.827.827,0,0,0,.607-.25.827.827,0,0,0,.25-.607.826.826,0,0,0-.25-.607.827.827,0,0,0-.607-.25.827.827,0,0,0-.607.25.826.826,0,0,0-.25.607.827.827,0,0,0,.25.607A.827.827,0,0,0,89.086-870.857ZM85.714-874.286Zm0-1.857a1.79,1.79,0,0,0-1.314.543,1.79,1.79,0,0,0-.543,1.314A1.8,1.8,0,0,0,84.2-873.2a1.875,1.875,0,0,0,.886.671v-.971a1.013,1.013,0,0,1-.264-.35,1,1,0,0,1-.107-.436.964.964,0,0,1,.293-.707.963.963,0,0,1,.707-.293.986.986,0,0,1,.471.114.908.908,0,0,1,.343.314h.943a1.885,1.885,0,0,0-.664-.921A1.756,1.756,0,0,0,85.714-876.143ZM84.4-868.571l-.286-1.8a3.829,3.829,0,0,1-.571-.271,3.92,3.92,0,0,1-.529-.357l-1.686.771L80-872.571l1.543-1.129a1.7,1.7,0,0,1-.036-.293q-.007-.164-.007-.293t.007-.293a1.7,1.7,0,0,1,.036-.293L80-876l1.329-2.343,1.686.771a3.925,3.925,0,0,1,.529-.357,2.953,2.953,0,0,1,.571-.257L84.4-880h2.629l.286,1.8a4.632,4.632,0,0,1,.579.264,2.459,2.459,0,0,1,.521.364l1.686-.771L91.429-876l-1.543,1.143v0h-.871q-.014-.1-.029-.193a1.574,1.574,0,0,0-.043-.193l1.343-.986-.571-1.029L88.2-876.6a3.186,3.186,0,0,0-.743-.621,2.409,2.409,0,0,0-.914-.321l-.2-1.6H85.086l-.2,1.6a3.028,3.028,0,0,0-.907.343,3.151,3.151,0,0,0-.75.6l-1.514-.657-.571,1.029,1.343.986q-.057.243-.093.479a3.19,3.19,0,0,0-.036.479,3.189,3.189,0,0,0,.036.479q.036.236.093.479l-1.343.986.571,1.029,1.514-.657a3.457,3.457,0,0,0,.85.622,3.989,3.989,0,0,0,1.007.364v2.414Z" transform="translate(-80 880)" fill="#3a4561"/>
</svg>
