<svg id="print" xmlns="http://www.w3.org/2000/svg" width="12" height="11.5" viewBox="0 0 12 11.5">
  <path id="패스_2775" data-name="패스 2775" d="M8.25,1.5H3.75A.75.75,0,0,0,3,2.25v1.5H2.25V2.25A1.5,1.5,0,0,1,3.75.75h4.5a1.5,1.5,0,0,1,1.5,1.5v1.5H9V2.25A.75.75,0,0,0,8.25,1.5Zm2.25,3h-9a.75.75,0,0,0-.75.75V7.5a.75.75,0,0,0,.75.75h.75V9H1.5A1.5,1.5,0,0,1,0,7.5V5.25a1.5,1.5,0,0,1,1.5-1.5h9A1.5,1.5,0,0,1,12,5.25V7.5A1.5,1.5,0,0,1,10.5,9H9.75V8.25h.75a.75.75,0,0,0,.75-.75V5.25A.75.75,0,0,0,10.5,4.5Z" transform="translate(0 -0.75)" fill="#c5c5d2"/>
  <path id="패스_2776" data-name="패스 2776" d="M8.25,6.75H3.75A.75.75,0,0,0,3,7.5v3.25a.75.75,0,0,0,.75.75h4.5A.75.75,0,0,0,9,10.75V7.5A.75.75,0,0,0,8.25,6.75ZM3.75,6a1.5,1.5,0,0,0-1.5,1.5v3.25a1.5,1.5,0,0,0,1.5,1.5h4.5a1.5,1.5,0,0,0,1.5-1.5V7.5A1.5,1.5,0,0,0,8.25,6Z" transform="translate(0 -0.75)" fill="#c5c5d2" fill-rule="evenodd"/>
  <path id="패스_2777" data-name="패스 2777" d="M2.25,5.625a.375.375,0,1,1-.375-.375A.375.375,0,0,1,2.25,5.625Z" transform="translate(0 -0.75)" fill="#c5c5d2"/>
</svg>
