<svg xmlns="http://www.w3.org/2000/svg" width="14" height="14" viewBox="0 0 14 14">
  <path id="help_FILL1_wght400_GRAD0_opsz48" d="M87.07-868.923a.643.643,0,0,0,.473-.192.642.642,0,0,0,.192-.473.642.642,0,0,0-.192-.472.643.643,0,0,0-.473-.192.642.642,0,0,0-.472.192.642.642,0,0,0-.193.472.642.642,0,0,0,.193.473A.642.642,0,0,0,87.07-868.923Zm-.612-2.555H87.49a2.864,2.864,0,0,1,.114-.831,2.061,2.061,0,0,1,.709-.866,3.063,3.063,0,0,0,.77-.893,2.055,2.055,0,0,0,.228-.963,1.932,1.932,0,0,0-.6-1.487,2.261,2.261,0,0,0-1.6-.56,2.706,2.706,0,0,0-1.514.429,2.449,2.449,0,0,0-.954,1.181l.928.35a1.633,1.633,0,0,1,.577-.761,1.54,1.54,0,0,1,.91-.271,1.4,1.4,0,0,1,.963.324,1.057,1.057,0,0,1,.368.831,1.287,1.287,0,0,1-.228.726,3.488,3.488,0,0,1-.665.709,3.559,3.559,0,0,0-.779.9A2.382,2.382,0,0,0,86.458-871.478ZM87-866a6.773,6.773,0,0,1-2.713-.551,7.1,7.1,0,0,1-2.231-1.505,7.1,7.1,0,0,1-1.5-2.231A6.773,6.773,0,0,1,80-873a6.816,6.816,0,0,1,.551-2.73,7,7,0,0,1,1.5-2.223,7.175,7.175,0,0,1,2.231-1.5A6.772,6.772,0,0,1,87-880a6.815,6.815,0,0,1,2.73.551,7.069,7.069,0,0,1,2.222,1.5,7.069,7.069,0,0,1,1.5,2.223A6.816,6.816,0,0,1,94-873a6.774,6.774,0,0,1-.551,2.713,7.176,7.176,0,0,1-1.5,2.231,7,7,0,0,1-2.222,1.505A6.816,6.816,0,0,1,87-866Z" transform="translate(-80 880)" fill="#ccd1db"/>
</svg>
