<svg xmlns="http://www.w3.org/2000/svg" width="12" height="8.889" viewBox="0 0 12 8.889">
  <path id="list_FILL0_wght400_GRAD0_opsz48" d="M120.663-671.111a.636.636,0,0,1-.474-.193.656.656,0,0,1-.189-.478.636.636,0,0,1,.193-.474.656.656,0,0,1,.478-.189.636.636,0,0,1,.474.193.656.656,0,0,1,.189.478.636.636,0,0,1-.193.474A.656.656,0,0,1,120.663-671.111Zm0-3.778a.636.636,0,0,1-.474-.193.656.656,0,0,1-.189-.478.636.636,0,0,1,.193-.474.656.656,0,0,1,.478-.189.636.636,0,0,1,.474.193.656.656,0,0,1,.189.478.636.636,0,0,1-.193.474A.656.656,0,0,1,120.663-674.889Zm0-3.778a.636.636,0,0,1-.474-.193.656.656,0,0,1-.189-.478.636.636,0,0,1,.193-.474.656.656,0,0,1,.478-.189.636.636,0,0,1,.474.193.656.656,0,0,1,.189.478.636.636,0,0,1-.193.474A.656.656,0,0,1,120.663-678.667Zm3.115,7.556v-1.333H132v1.333Zm0-3.778v-1.333H132v1.333Zm0-3.778V-680H132v1.333Z" transform="translate(-120 680)" fill="#fff"/>
</svg>
