<svg xmlns="http://www.w3.org/2000/svg" width="12" height="12" viewBox="0 0 12 12">
  <g id="tenants_ico" transform="translate(-247 -278)">
    <rect id="사각형_1736" data-name="사각형 1736" width="12" height="12" transform="translate(247 278)" fill="none"/>
    <path id="패스_6692" data-name="패스 6692" d="M10,5.5A1.5,1.5,0,1,1,8.5,7,1.5,1.5,0,0,1,10,5.5m0,6.75c2.025,0,4.35.967,4.5,1.5v.75h-9v-.743c.15-.54,2.475-1.507,4.5-1.507M10,4a3,3,0,1,0,3,3,3,3,0,0,0-3-3Zm0,6.75c-2,0-6,1.005-6,3V16H16V13.75C16,11.755,12,10.75,10,10.75Z" transform="translate(243 274)" fill="#3a4561"/>
  </g>
</svg>
