<svg xmlns="http://www.w3.org/2000/svg" width="13.592" height="13.96" viewBox="0 0 13.592 13.96">
  <g id="Application" transform="translate(-198 -19)">
    <path id="패스_6530" data-name="패스 6530" d="M13.5,8.38V7.615l.96-.84A1,1,0,0,0,14.65,5.5l-1.18-2a1.009,1.009,0,0,0-1.185-.45l-1.215.41a5.675,5.675,0,0,0-.655-.375l-.255-1.26a1,1,0,0,0-1-.805H6.82a1,1,0,0,0-1,.805l-.255,1.26a5.74,5.74,0,0,0-.66.375l-1.19-.43A1,1,0,0,0,3.395,3a1,1,0,0,0-.865.5l-1.18,2a1,1,0,0,0,.2,1.255l.95.865v.765l-.945.84A1,1,0,0,0,1.35,10.5l1.18,2a1.009,1.009,0,0,0,1.185.45l1.215-.41a5.675,5.675,0,0,0,.655.375l.255,1.26a1,1,0,0,0,1,.805H9.2a1,1,0,0,0,1-.805l.255-1.26a5.74,5.74,0,0,0,.66-.375l1.21.41a1.009,1.009,0,0,0,1.185-.45l1.14-2a1,1,0,0,0-.2-1.255ZM12.6,12l-1.715-.58A4.43,4.43,0,0,1,9.53,12.2L9.18,14H6.82l-.355-1.775a4.68,4.68,0,0,1-1.35-.785L3.395,12l-1.18-2,1.36-1.2a4.45,4.45,0,0,1,0-1.565L2.215,6l1.18-2,1.715.58a4.43,4.43,0,0,1,1.355-.785L6.82,2H9.18l.355,1.775a4.68,4.68,0,0,1,1.35.785L12.6,4l1.18,2L12.42,7.2a4.45,4.45,0,0,1,0,1.565L13.785,10Z" transform="translate(196.794 17.98)"/>
    <path id="패스_6531" data-name="패스 6531" d="M8,11a3,3,0,1,1,3-3,2.97,2.97,0,0,1-3,3ZM8,6A1.955,1.955,0,0,0,6,8a1.955,1.955,0,0,0,2,2,1.955,1.955,0,0,0,2-2A1.955,1.955,0,0,0,8,6Z" transform="translate(196.794 18)"/>
  </g>
</svg>
