<svg xmlns="http://www.w3.org/2000/svg" xmlns:xlink="http://www.w3.org/1999/xlink" width="172" height="38.75" viewBox="0 0 172 38.75">
  <defs>
    <clipPath id="clip-path">
      <rect id="사각형_4373" data-name="사각형 4373" width="172" height="38.75" transform="translate(7 2.75)" fill="none"/>
    </clipPath>
  </defs>
  <g id="그룹_6302" data-name="그룹 6302" transform="translate(-7 -2.75)" clip-path="url(#clip-path)">
    <g id="그룹_6305" data-name="그룹 6305" transform="translate(7 2.75)">
      <path id="패스_24612" data-name="패스 24612" d="M34.012,38.75H4.738A4.738,4.738,0,0,1,0,34.012V4.738A4.738,4.738,0,0,1,4.738,0H34.012A4.738,4.738,0,0,1,38.75,4.738V34.012a4.738,4.738,0,0,1-4.738,4.738" fill="#43273a"/>
      <path id="패스_24613" data-name="패스 24613" d="M37.6,24.453,20.134,41.92,37.6,59.387,55.068,41.92ZM21.157,41.92,37.6,25.476,54.045,41.92,37.6,58.364Z" transform="translate(-18.226 -22.136)" fill="#67586c"/>
      <path id="패스_24614" data-name="패스 24614" d="M243.5,196.276c-3.452,0-5.858-1.8-5.989-4.488l-.034-.7h3.161c-1.657-.537-3.05-1.566-3.05-3.758a3.782,3.782,0,0,1,1.81-3.184,7.368,7.368,0,0,1,4.045-1.085c3.294,0,5.7,1.771,5.854,4.306l.043.712h-2.946c1.68.539,3.1,1.573,3.1,3.777,0,2.563-2.519,4.424-5.99,4.424m-1.329-4.625c.059.372.655.652,1.387.652a2.275,2.275,0,0,0,1.17-.251,6.447,6.447,0,0,0-2.081-.521q-.252-.038-.508-.083Zm.176-4.5a8.215,8.215,0,0,0,2.032.48l.284.045-.027-.161c-.053-.32-.592-.561-1.252-.561a2.285,2.285,0,0,0-1.036.2" transform="translate(-214.969 -165.711)" fill="#ada3ae"/>
      <path id="패스_24615" data-name="패스 24615" d="M236.7,177.314c2.824,0,5.048,1.431,5.183,3.675h-3.326c-.116-.7-.909-1.122-1.915-1.122-1.044,0-1.8.367-1.8.87,0,.561.754.832,2.688,1.141,3.346.5,4.545,1.605,4.545,3.559,0,2.321-2.437,3.752-5.319,3.752-2.959,0-5.2-1.47-5.319-3.849h3.327c.116.735.967,1.219,2.05,1.219,1.1,0,1.915-.406,1.915-.928,0-.542-.774-.89-2.727-1.18-2.708-.406-4.487-1.238-4.487-3.539,0-2.2,2.3-3.6,5.183-3.6m0-1.343a8.041,8.041,0,0,0-4.417,1.2,4.434,4.434,0,0,0-2.109,3.743,4.163,4.163,0,0,0,1.2,3.086h-1.349l.069,1.409a4.932,4.932,0,0,0,2.162,3.85,7.765,7.765,0,0,0,4.5,1.277c3.86,0,6.662-2.143,6.662-5.1a4.111,4.111,0,0,0-1.224-3.105h1.114l-.086-1.424c-.175-2.907-2.858-4.937-6.524-4.937" transform="translate(-208.233 -159.296)" fill="#43273a"/>
      <path id="패스_24616" data-name="패스 24616" d="M52.088,109.963V88.024h6.157a10.877,10.877,0,0,1,8,3.076,12.039,12.039,0,0,1,0,15.8,10.9,10.9,0,0,1-8,3.063Zm6.227-5.627c3.256,0,5.049-1.893,5.049-5.33,0-3.4-1.84-5.355-5.049-5.355h-.387v10.684Z" transform="translate(-47.152 -79.683)" fill="#fffdfd"/>
      <path id="패스_24617" data-name="패스 24617" d="M50.547,81.133C56.82,81.133,60.7,85.3,60.7,91.309S56.82,101.46,50.547,101.46H45.2V81.133ZM49.424,97.444h1.193c3.624,0,5.854-2.22,5.854-6.135s-2.23-6.16-5.854-6.16H49.424v12.3m1.123-17.923H43.584v23.55h6.963c7.036,0,11.764-4.727,11.764-11.763a13.358,13.358,0,0,0-.806-4.69,10.724,10.724,0,0,0-2.377-3.779,11.663,11.663,0,0,0-8.58-3.318m.489,16.3V86.772c3.147.19,3.824,2.547,3.824,4.536s-.677,4.322-3.824,4.511" transform="translate(-39.454 -71.985)" fill="#43273a"/>
    </g>
    <g id="그룹_6304" data-name="그룹 6304" transform="translate(3.155 0.074)">
      <path id="패스_24618" data-name="패스 24618" d="M557.666,135.117h7.23c6.178,0,10,3.821,10,9.335s-3.821,9.312-10,9.312h-7.23Zm7.3,14.964c3.57,0,5.766-2.036,5.766-5.628s-2.2-5.652-5.766-5.652H561.83v11.28Z" transform="translate(-504.821 -122.238)" fill="#43273a"/>
      <path id="패스_24619" data-name="패스 24619" d="M706.823,144.361l-5.972-9.244h4.942l3.753,6.086,3.867-6.086h4.736l-5.995,9.106,6.2,9.541h-4.874l-4-6.43-4.1,6.43h-4.736Z" transform="translate(-631.556 -122.237)" fill="#43273a"/>
      <path id="패스_24620" data-name="패스 24620" d="M865.271,137.175h-4.3c-.252-1.624-1.464-2.608-3.455-2.608-1.945,0-3.02.778-3.02,1.9,0,1.4,1.441,1.876,5.079,2.631,4.3.892,5.766,3.02,5.766,5.812,0,3.569-3.364,5.743-7.528,5.743-4.6,0-7.962-2.494-8.146-6.475h4.279c.229,1.785,1.785,2.975,4.164,2.975,1.693,0,2.952-.847,2.952-2.059,0-1.487-1.258-2.082-4.576-2.7-4.05-.755-6.246-2.425-6.246-5.926,0-3.363,3.341-5.377,7.551-5.377,4.164,0,7.276,2.54,7.482,6.086" transform="translate(-763.722 -118.667)" fill="#43273a"/>
      <path id="패스_24621" data-name="패스 24621" d="M1007.44,190.77a4.522,4.522,0,0,1-3.844,1.693c-3.844,0-6.521-2.952-6.521-7.024s2.677-7.024,6.521-7.024a4.522,4.522,0,0,1,3.844,1.693v-1.373h4.073v18.991h-4.073Zm.069-5.331a3.249,3.249,0,0,0-3.272-3.547c-1.945,0-3.18,1.487-3.18,3.547s1.236,3.547,3.18,3.547a3.249,3.249,0,0,0,3.272-3.547" transform="translate(-894.421 -160.665)" fill="#43273a"/>
      <path id="패스_24622" data-name="패스 24622" d="M1144.28,188.962v-7.728h4.073v7.044c0,2.029.824,3.146,2.357,3.146,1.6,0,2.563-1.254,2.563-3.328v-6.862h4.073v13.359h-4.073v-1.368a4.406,4.406,0,0,1-3.752,1.687c-3.112,0-5.24-2.257-5.24-5.95" transform="translate(-1024.938 -163.115)" fill="#43273a"/>
      <path id="패스_24623" data-name="패스 24623" d="M1275.175,185.413c0-4.058,2.677-7,6.521-7a4.527,4.527,0,0,1,3.844,1.687v-1.368h4.073v13.36h-4.073v-1.368a4.528,4.528,0,0,1-3.844,1.687c-3.844,0-6.521-2.941-6.521-7m10.434,0a3.242,3.242,0,0,0-3.272-3.534c-1.945,0-3.18,1.482-3.18,3.534s1.235,3.534,3.18,3.534a3.243,3.243,0,0,0,3.272-3.534" transform="translate(-1140.996 -160.615)" fill="#43273a"/>
      <path id="패스_24624" data-name="패스 24624" d="M1424.192,178.734h4.073V180.1a4.405,4.405,0,0,1,3.752-1.687,5.009,5.009,0,0,1,1.762.228l.045,3.807a4.524,4.524,0,0,0-2.082-.456c-2.174,0-3.478,1.231-3.478,3.26v6.839h-4.073Z" transform="translate(-1273.143 -160.616)" fill="#43273a"/>
      <path id="패스_24625" data-name="패스 24625" d="M1510.785,185.414a6.979,6.979,0,1,1,13.957,0,9.106,9.106,0,0,1-.092,1.3h-9.816a2.83,2.83,0,0,0,2.929,2.439,2.764,2.764,0,0,0,2.471-1.049h4.1c-.687,2.554-3.318,4.309-6.567,4.309a6.716,6.716,0,0,1-6.979-7m9.976-1.322a2.849,2.849,0,0,0-3-2.462,2.8,2.8,0,0,0-2.952,2.462Z" transform="translate(-1349.897 -160.615)" fill="#43273a"/>
    </g>
  </g>
</svg>
