<svg xmlns="http://www.w3.org/2000/svg" width="12.001" height="12" viewBox="0 0 12.001 12">
  <g id="setting" transform="translate(-288.999 -278)">
    <rect id="사각형_1737" data-name="사각형 1737" width="12" height="12" transform="translate(289 278)" fill="none"/>
    <path id="패스_6642" data-name="패스 6642" d="M12.855,8.588a4.025,4.025,0,0,0,0-1.176l1.3-.99a.3.3,0,0,0,.074-.384L13,3.962a.31.31,0,0,0-.271-.15.3.3,0,0,0-.1.018l-1.536.6a4.539,4.539,0,0,0-1.042-.588l-.234-1.59A.3.3,0,0,0,9.506,2H7.038a.3.3,0,0,0-.3.252L6.5,3.842a4.773,4.773,0,0,0-1.042.588l-1.536-.6a.358.358,0,0,0-.111-.018.307.307,0,0,0-.265.15L2.313,6.038a.29.29,0,0,0,.074.384l1.3.99a4.137,4.137,0,0,0,0,1.176l-1.3.99a.3.3,0,0,0-.074.384l1.234,2.076a.31.31,0,0,0,.271.15.3.3,0,0,0,.1-.018l1.536-.6a4.539,4.539,0,0,0,1.042.588l.234,1.59a.3.3,0,0,0,.3.252H9.506a.3.3,0,0,0,.3-.252l.234-1.59a4.773,4.773,0,0,0,1.042-.588l1.536.6a.358.358,0,0,0,.111.018.307.307,0,0,0,.265-.15l1.234-2.076a.3.3,0,0,0-.074-.384ZM11.634,7.562A3.119,3.119,0,0,1,11.665,8a4.346,4.346,0,0,1-.031.438l-.086.678.549.42.666.5-.432.726-.783-.306-.642-.252-.555.408a3.638,3.638,0,0,1-.771.438l-.654.258-.1.678L8.7,12.8H7.84l-.117-.81-.1-.678-.654-.258a3.525,3.525,0,0,1-.759-.426l-.561-.42L5,10.466l-.783.306-.432-.726.666-.5L5,9.122l-.09-.678C4.892,8.258,4.879,8.12,4.879,8a4.322,4.322,0,0,1,.031-.438L5,6.884l-.549-.42-.666-.5.432-.726L5,5.54l.642.252L6.2,5.384a3.638,3.638,0,0,1,.771-.438l.654-.258.1-.678L7.84,3.2H8.7l.117.81.1.678.654.258a3.525,3.525,0,0,1,.759.426l.561.42.654-.258.783-.306.432.726-.66.51-.549.42.086.678ZM8.272,5.6A2.4,2.4,0,1,0,10.739,8,2.434,2.434,0,0,0,8.272,5.6Zm0,3.6A1.2,1.2,0,1,1,9.506,8,1.221,1.221,0,0,1,8.272,9.2Z" transform="translate(286.729 276)" fill="#3a4561"/>
  </g>
</svg>
