<svg xmlns="http://www.w3.org/2000/svg" width="20" height="20" viewBox="0 0 20 20">
  <g id="비밀번호아이콘" transform="translate(-530 -494)">
    <rect id="사각형_1911" data-name="사각형 1911" width="20" height="20" transform="translate(530 494)" fill="rgba(255,155,155,0)"/>
    <path id="합치기_14" data-name="합치기 14" d="M2.28,18A2.375,2.375,0,0,1,0,15.545V9.818A2.375,2.375,0,0,1,2.28,7.364h.76V4.909A4.75,4.75,0,0,1,7.6,0a4.75,4.75,0,0,1,4.56,4.909V7.364h.76A2.375,2.375,0,0,1,15.2,9.818v5.727A2.375,2.375,0,0,1,12.92,18ZM1.52,9.818v5.727a.792.792,0,0,0,.76.818H12.92a.792.792,0,0,0,.76-.818V9.818A.792.792,0,0,0,12.92,9H2.28A.792.792,0,0,0,1.52,9.818Zm9.12-2.455V4.909A3.167,3.167,0,0,0,7.6,1.636,3.166,3.166,0,0,0,4.56,4.909V7.364ZM5.863,12.546A1.81,1.81,0,0,1,7.6,10.675a1.875,1.875,0,0,1,0,3.741A1.81,1.81,0,0,1,5.863,12.546Zm1.158,0a.58.58,0,1,0,.578-.623A.6.6,0,0,0,7.021,12.546Z" transform="translate(532 495)" fill="#696f78"/>
  </g>
</svg>
