<svg xmlns="http://www.w3.org/2000/svg" xmlns:xlink="http://www.w3.org/1999/xlink" width="56" height="56" viewBox="0 0 56 56">
  <defs>
    <clipPath id="clip-path">
      <rect id="사각형_27041" data-name="사각형 27041" width="56" height="56" transform="translate(-16746 6039)" fill="#fff"/>
    </clipPath>
  </defs>
  <g id="마스크_그룹_9311" data-name="마스크 그룹 9311" transform="translate(16746 -6039)" clip-path="url(#clip-path)">
    <g id="그룹_10152" data-name="그룹 10152" transform="translate(-16747.729 6036.804)">
      <path id="패스_26453" data-name="패스 26453" d="M29.728,56.392a24.512,24.512,0,0,1-9.97-2.063,26.079,26.079,0,0,1-8.2-5.632,26.6,26.6,0,0,1-5.532-8.35A25.744,25.744,0,0,1,4,30.2,25.906,25.906,0,0,1,6.026,19.979,26.041,26.041,0,0,1,19.758,6.063a25.277,25.277,0,0,1,20,0,25.966,25.966,0,0,1,8.169,5.6,26.491,26.491,0,0,1,5.5,8.317A25.906,25.906,0,0,1,55.456,30.2,25.744,25.744,0,0,1,53.43,40.347a26.9,26.9,0,0,1-5.5,8.35,25.693,25.693,0,0,1-8.169,5.632A24.665,24.665,0,0,1,29.728,56.392Zm0-3.929a20.855,20.855,0,0,0,15.5-6.516A21.713,21.713,0,0,0,51.6,30.2a21.681,21.681,0,0,0-6.368-15.783,20.909,20.909,0,0,0-15.5-6.483,20.939,20.939,0,0,0-15.469,6.483A21.623,21.623,0,0,0,7.859,30.2a21.655,21.655,0,0,0,6.4,15.75A20.886,20.886,0,0,0,29.728,52.462Z" transform="translate(0 0)"/>
      <path id="패스_26454" data-name="패스 26454" d="M22.178,22.537,13.15,41.471l18.308-9.337L40.486,13.2Zm6.471,6.627a2.531,2.531,0,0,1-3.6,0,2.748,2.748,0,0,1,0-3.722,2.531,2.531,0,0,1,3.6,0,2.748,2.748,0,0,1,0,3.722Z" transform="translate(2.877 2.893)" fill="#602b8a"/>
    </g>
  </g>
</svg>
