<svg xmlns="http://www.w3.org/2000/svg" xmlns:xlink="http://www.w3.org/1999/xlink" width="56" height="56" viewBox="0 0 56 56">
  <defs>
    <clipPath id="clip-path">
      <rect id="사각형_27028" data-name="사각형 27028" width="56" height="56" transform="translate(-16675.816 6110.255)" fill="#fff"/>
    </clipPath>
  </defs>
  <g id="마스크_그룹_9307" data-name="마스크 그룹 9307" transform="translate(16675.816 -6110.255)" clip-path="url(#clip-path)">
    <g id="그룹_10159" data-name="그룹 10159" transform="translate(-16674.07 6112)">
      <path id="패스_26463" data-name="패스 26463" d="M0,0H52.51V52.51H0Z" fill="none"/>
      <path id="패스_26464" data-name="패스 26464" d="M35.407,7.4a1.016,1.016,0,0,1-.5-.131A25.034,25.034,0,0,0,22.717,4.188,25.031,25.031,0,0,0,10.53,7.273,1.1,1.1,0,1,1,9.48,5.347a27.838,27.838,0,0,1,26.43-.022,1.107,1.107,0,0,1-.5,2.079ZM4.1,18.891a1.14,1.14,0,0,1-.634-.2A1.091,1.091,0,0,1,3.2,17.162a22.621,22.621,0,0,1,8.2-7.154,25.256,25.256,0,0,1,22.557-.022,22.707,22.707,0,0,1,8.2,7.111,1.1,1.1,0,1,1-1.794,1.269,20.54,20.54,0,0,0-7.417-6.432,23.055,23.055,0,0,0-20.566.022,20.756,20.756,0,0,0-7.439,6.476A.954.954,0,0,1,4.1,18.891ZM17.772,45.3a1.026,1.026,0,0,1-.766-.328,22.118,22.118,0,0,1-4.4-5.776,19.422,19.422,0,0,1-2.3-9.5c0-6.5,5.557-11.793,12.384-11.793S35.078,23.2,35.078,29.7a1.094,1.094,0,1,1-2.188,0c0-5.295-4.573-9.6-10.2-9.6S12.5,24.4,12.5,29.7a17.14,17.14,0,0,0,2.035,8.423,20.709,20.709,0,0,0,4.048,5.295,1.123,1.123,0,0,1,0,1.553A1.2,1.2,0,0,1,17.772,45.3Zm15.687-4.048A11.782,11.782,0,0,1,26.677,39.3a11.649,11.649,0,0,1-5.207-9.6,1.094,1.094,0,0,1,2.188,0A9.41,9.41,0,0,0,27.9,37.488a9.593,9.593,0,0,0,5.557,1.553,14.459,14.459,0,0,0,2.275-.219,1.1,1.1,0,1,1,.372,2.166A14.941,14.941,0,0,1,33.459,41.251Zm-4.4,4.507a1.28,1.28,0,0,1-.284-.044,17.071,17.071,0,0,1-8.139-4.595A15.964,15.964,0,0,1,15.891,29.7a6.6,6.6,0,0,1,6.739-6.432A6.6,6.6,0,0,1,29.368,29.7a4.562,4.562,0,0,0,9.1,0c0-8.248-7.111-14.943-15.862-14.943A15.973,15.973,0,0,0,8.145,23.573,14.075,14.075,0,0,0,6.854,29.7,21.742,21.742,0,0,0,8.32,37.6,1.068,1.068,0,0,1,7.686,39a1.085,1.085,0,0,1-1.4-.634,24.375,24.375,0,0,1-1.6-8.664A16.437,16.437,0,0,1,6.176,22.61,18.157,18.157,0,0,1,22.607,12.546c9.955,0,18.05,7.68,18.05,17.131a6.746,6.746,0,0,1-13.478,0,4.406,4.406,0,0,0-4.551-4.245,4.406,4.406,0,0,0-4.551,4.245,13.778,13.778,0,0,0,4.091,9.867,14.878,14.878,0,0,0,7.154,4.048,1.086,1.086,0,0,1,.766,1.335A1.068,1.068,0,0,1,29.062,45.758Z" transform="translate(3.56 2.376)"/>
      <circle id="타원_344" data-name="타원 344" cx="10.024" cy="10.024" r="10.024" transform="translate(31.538 31.545)" fill="#602b8a"/>
      <path id="패스_26465" data-name="패스 26465" d="M25.175,16.807,19.76,22.22l-2.6-2.6a1.269,1.269,0,1,0-1.8,1.794l3.5,3.5a1.269,1.269,0,0,0,1.8,0l6.31-6.31a1.269,1.269,0,0,0-1.794-1.8Z" transform="translate(20.811 21.523)" fill="#fff"/>
    </g>
  </g>
</svg>
