<svg xmlns="http://www.w3.org/2000/svg" xmlns:xlink="http://www.w3.org/1999/xlink" width="56" height="56" viewBox="0 0 56 56">
  <defs>
    <clipPath id="clip-path">
      <rect id="사각형_27018" data-name="사각형 27018" width="56" height="56" transform="translate(-16818 6039)" fill="#fff"/>
    </clipPath>
  </defs>
  <g id="마스크_그룹_9304" data-name="마스크 그룹 9304" transform="translate(16818 -6039)" clip-path="url(#clip-path)">
    <path id="패스_26452" data-name="패스 26452" d="M11.464,45.914a5.464,5.464,0,1,1,0-10.928,5.464,5.464,0,1,1,0,10.928Zm27.432,0a31.88,31.88,0,0,0-2.593-12.8A33.352,33.352,0,0,0,29.25,22.664,33.352,33.352,0,0,0,18.8,15.611,31.88,31.88,0,0,0,6,13.018V8a36.7,36.7,0,0,1,14.747,2.983A38.283,38.283,0,0,1,40.931,31.167a36.7,36.7,0,0,1,2.983,14.747Zm-13.27,0q0-8.81-5.408-14.441T6,25.842V20.824a25.4,25.4,0,0,1,9.925,1.9A23.339,23.339,0,0,1,23.7,27.961a24.013,24.013,0,0,1,5.1,7.945,26.7,26.7,0,0,1,1.84,10.008Z" transform="translate(-16826.709 6060.586) rotate(-45)"/>
    <circle id="타원_343" data-name="타원 343" cx="6" cy="6" r="6" transform="translate(-16795.814 6075.255)" fill="#602b8a"/>
  </g>
</svg>
