<svg xmlns="http://www.w3.org/2000/svg" width="214" height="214" viewBox="0 0 214 214">
  <g id="그룹_10103" data-name="그룹 10103" transform="translate(-362.223 -415.538)">
    <g id="그룹_10096" data-name="그룹 10096" transform="translate(362.223 415.538)">
      <path id="패스_26438" data-name="패스 26438" d="M0,0H136.442V136.442H0Z" transform="translate(10.322 106.906) rotate(-45)" fill="none" stroke="#8ecae9" stroke-width="5" opacity="0.08"/>
      <g id="그룹_10094" data-name="그룹 10094">
        <g id="그룹_10093" data-name="그룹 10093">
          <g id="그룹_10092" data-name="그룹 10092">
            <g id="그룹_10091" data-name="그룹 10091">
              <rect id="사각형_27155" data-name="사각형 27155" width="214" height="214" rx="50" fill="#602b8a"/>
            </g>
          </g>
        </g>
      </g>
      <g id="그룹_10095" data-name="그룹 10095" transform="translate(10.521 10.427)">
        <path id="패스_26431" data-name="패스 26431" d="M478.836,435.492l-96.479,96.479,96.479,96.479,96.479-96.479Zm-90.826,96.479,90.826-90.826,90.826,90.826L478.836,622.8Z" transform="translate(-382.357 -435.492)" fill="#764195"/>
      </g>
    </g>
    <g id="그룹_10098" data-name="그룹 10098" transform="translate(466.013 459.989)">
      <g id="그룹_10097" data-name="그룹 10097" transform="translate(0 0)">
        <path id="패스_26432" data-name="패스 26432" d="M628.777,629.769V584.245H600.95v45.524h-32.2V508.79h32.2v44.424h27.827V508.79h32.2V629.769Z" transform="translate(-564.302 -504.346)" fill="#fffdfd"/>
        <path id="패스_26433" data-name="패스 26433" d="M652.476,509.174V621.266H629.16V575.741H592.446v45.525H569.13V509.174h23.317V553.6H629.16V509.174h23.316m8.888-8.888H620.273v44.425H601.334V500.286H560.242V630.153h41.092V584.629h18.939v45.524h41.091V500.286Z" transform="translate(-560.242 -500.286)" fill="#602b8a"/>
      </g>
    </g>
    <g id="그룹_10102" data-name="그룹 10102" transform="translate(376.531 513.482)">
      <g id="그룹_10101" data-name="그룹 10101">
        <g id="그룹_10099" data-name="그룹 10099">
          <path id="패스_26434" data-name="패스 26434" d="M419.576,629.1l-1.41-15.517H401.673l3.284,35.561C408.5,640.492,413.667,633.49,419.576,629.1Z" transform="translate(-395.366 -607.828)" fill="#edb9d1"/>
          <path id="패스_26435" data-name="패스 26435" d="M412.4,608.324l1.41,15.517c-5.909,4.394-11.078,11.4-14.618,20.044l-3.284-35.561H412.4m5.252-5.751H389.6l.58,6.28,3.284,35.561,2.158,23.37,8.891-21.72c3.09-7.549,7.611-13.8,12.728-17.609l2.587-1.924-.292-3.212-1.41-15.516-.476-5.231Z" transform="translate(-389.604 -602.573)" fill="#602b8a"/>
        </g>
        <g id="그룹_10100" data-name="그룹 10100" transform="translate(4.648 0.047)">
          <path id="패스_26436" data-name="패스 26436" d="M483.97,613.668H468.232c.858,4.2.769,10.686-.452,17.817-2.042,11.928-6.475,21.121-9.9,20.534-.856-.146-1.569-.89-2.125-2.109-.294-1.345-.64-2.644-1.038-3.888-2.747-8.58-7.912-14.586-14.619-15.735-.444-.076-.889-.127-1.334-.159-11.921-.854-24.018,13.92-27.446,33.943q-.338,1.975-.549,3.921h16.465q.085-.55.181-1.106c2.042-11.927,6.476-21.121,9.9-20.534.977.167,1.765,1.116,2.348,2.657q.308,1.319.687,2.571c2.689,8.933,7.945,15.222,14.824,16.4l.092.014c12.311,2.022,25.141-13.079,28.688-33.8A58.465,58.465,0,0,0,483.97,613.668Z" transform="translate(-404.356 -607.917)" fill="#edb9d1"/>
          <path id="패스_26437" data-name="패스 26437" d="M478.113,608.413a58.465,58.465,0,0,1-.015,20.526c-3.333,19.471-14.864,33.979-26.459,33.979a13.743,13.743,0,0,1-2.229-.181l-.092-.014c-6.879-1.178-12.135-7.466-14.824-16.4q-.377-1.252-.687-2.571c-.583-1.541-1.371-2.489-2.348-2.657a1.862,1.862,0,0,0-.315-.027c-3.379,0-7.608,9-9.588,20.561q-.095.556-.181,1.106H404.91q.212-1.944.549-3.921c3.333-19.471,14.864-33.979,26.459-33.978q.494,0,.987.035c.445.032.89.083,1.334.159,6.708,1.149,11.872,7.155,14.619,15.735.4,1.244.744,2.543,1.038,3.888.555,1.219,1.268,1.963,2.125,2.11a1.866,1.866,0,0,0,.315.027c3.379,0,7.608-9,9.588-20.561,1.221-7.13,1.309-13.622.452-17.817h15.738m4.766-5.751h-27.55l1.411,6.9c.579,2.833.756,8.443-.485,15.694a59.259,59.259,0,0,1-2.905,11c-3.751-9.444-10.253-15.542-18.14-16.892-.608-.1-1.245-.18-1.893-.227-.462-.033-.933-.05-1.4-.05-7.44,0-14.846,4.223-20.855,11.892-5.507,7.028-9.51,16.57-11.273,26.868-.242,1.412-.443,2.849-.6,4.269l-.693,6.373h27.8l.76-4.864q.079-.509.167-1.023a58.95,58.95,0,0,1,2.964-11.149c3.746,9.48,10.232,15.583,18.159,16.94l.183.029a19.547,19.547,0,0,0,3.109.249c7.44,0,14.846-4.223,20.855-11.892,5.507-7.028,9.51-16.57,11.273-26.868a64.434,64.434,0,0,0,0-22.565l-.886-4.683Z" transform="translate(-398.499 -602.662)" fill="#602b8a"/>
        </g>
      </g>
    </g>
  </g>
</svg>
