<svg xmlns="http://www.w3.org/2000/svg" xmlns:xlink="http://www.w3.org/1999/xlink" width="210" height="210" viewBox="0 0 210 210">
  <defs>
    <clipPath id="clip-path">
      <rect id="사각형_27048" data-name="사각형 27048" width="210" height="210" transform="translate(-9460.891 4930.109)" fill="#fff" stroke="#707070" stroke-width="1"/>
    </clipPath>
  </defs>
  <g id="그룹_9313" data-name="그룹 9313" transform="translate(9460.891 -4930.109)" clip-path="url(#clip-path)">
    <g id="그룹_10082" data-name="그룹 10082" transform="translate(-11299.161 4538.837)">
      <g id="그룹_10061" data-name="그룹 10061" transform="translate(1866.576 416.17)">
        <g id="그룹_10040" data-name="그룹 10040" transform="translate(40.904)">
          <path id="패스_26392" data-name="패스 26392" d="M1959.52,494.568h-64.763a1.7,1.7,0,0,1-1.7-1.7v-74.99a1.7,1.7,0,0,1,1.7-1.7h51.128a1.7,1.7,0,0,1,1.206.5l13.634,13.634a1.7,1.7,0,0,1,.5,1.205v61.355A1.7,1.7,0,0,1,1959.52,494.568Z" transform="translate(-1893.052 -416.17)" fill="#e6cdf8"/>
        </g>
        <g id="그룹_10041" data-name="그룹 10041" transform="translate(45.842 124.101)">
          <path id="패스_26393" data-name="패스 26393" d="M1950.271,532.6h-52.317a1.707,1.707,0,0,1-1.633-2.2l9.809-32.692a1.7,1.7,0,0,1,1.632-1.216h32.7a1.7,1.7,0,0,1,1.631,1.216l9.766,32.549a1.726,1.726,0,0,1,.122.633A1.7,1.7,0,0,1,1950.271,532.6Zm-50.026-3.408h47.731l-8.788-29.287h-30.159Z" transform="translate(-1896.248 -496.498)"/>
        </g>
        <g id="그룹_10042" data-name="그룹 10042" transform="translate(29.494 156.795)">
          <path id="패스_26394" data-name="패스 26394" d="M1972.378,521.07h-85.007a1.7,1.7,0,0,1,0-3.41h85.007a1.7,1.7,0,1,1,0,3.41Z" transform="translate(-1885.667 -517.66)"/>
        </g>
        <g id="그룹_10043" data-name="그룹 10043" transform="translate(0.069 101.215)">
          <path id="패스_26395" data-name="패스 26395" d="M1891.212,485.092h-22.887a1.7,1.7,0,0,1,0-3.408h22.887a1.7,1.7,0,0,1,0,3.408Z" transform="translate(-1866.621 -481.684)"/>
        </g>
        <g id="그룹_10044" data-name="그룹 10044" transform="translate(37.494 101.215)">
          <path id="패스_26396" data-name="패스 26396" d="M2002.252,485.092h-109.7a1.7,1.7,0,1,1,0-3.408h109.7a1.7,1.7,0,1,1,0,3.408Z" transform="translate(-1890.845 -481.684)"/>
        </g>
        <g id="그룹_10045" data-name="그룹 10045" transform="translate(105.664 27.268)">
          <path id="패스_26397" data-name="패스 26397" d="M1963.947,508.811a1.707,1.707,0,0,1-1.707-1.7V437.23h-25.564a1.7,1.7,0,1,1,0-3.41h27.271a1.706,1.706,0,0,1,1.7,1.706v71.581A1.705,1.705,0,0,1,1963.947,508.811Z" transform="translate(-1934.97 -433.82)"/>
        </g>
        <g id="그룹_10046" data-name="그룹 10046" transform="translate(13.634 27.268)">
          <path id="패스_26398" data-name="패스 26398" d="M1877.1,508.811a1.705,1.705,0,0,1-1.7-1.7V435.526a1.7,1.7,0,0,1,1.7-1.706h27.27a1.7,1.7,0,0,1,0,3.41h-25.565v69.877A1.7,1.7,0,0,1,1877.1,508.811Z" transform="translate(-1875.401 -433.82)"/>
        </g>
        <g id="그룹_10047" data-name="그룹 10047" transform="translate(27.27 81.806)">
          <path id="패스_26399" data-name="패스 26399" d="M1892.747,479.348h-6.816a1.7,1.7,0,0,1-1.7-1.706v-6.818a1.7,1.7,0,1,1,3.408,0v5.114h5.112a1.7,1.7,0,0,1,0,3.41Z" transform="translate(-1884.227 -469.121)"/>
        </g>
        <g id="그룹_10048" data-name="그룹 10048" transform="translate(112.485 81.804)">
          <path id="패스_26400" data-name="패스 26400" d="M1947.905,479.349h-6.816a1.7,1.7,0,0,1,0-3.41h5.112v-5.115a1.7,1.7,0,0,1,3.41,0v6.819A1.705,1.705,0,0,1,1947.905,479.349Z" transform="translate(-1939.385 -469.12)"/>
        </g>
        <g id="그룹_10049" data-name="그룹 10049" transform="translate(0 146.571)">
          <path id="패스_26401" data-name="패스 26401" d="M1898.958,514.45H1868.28a1.7,1.7,0,0,1,0-3.408h30.678a1.7,1.7,0,0,1,0,3.408Z" transform="translate(-1866.576 -511.042)"/>
        </g>
        <g id="그룹_10050" data-name="그룹 10050" transform="translate(0 136.345)">
          <path id="패스_26402" data-name="패스 26402" d="M1881.914,507.83H1868.28a1.7,1.7,0,1,1,0-3.407h13.634a1.7,1.7,0,1,1,0,3.407Z" transform="translate(-1866.576 -504.423)"/>
        </g>
        <g id="그룹_10051" data-name="그룹 10051" transform="translate(119.301 146.571)">
          <path id="패스_26403" data-name="패스 26403" d="M1976.181,514.45H1945.5a1.7,1.7,0,0,1,0-3.408h30.68a1.7,1.7,0,0,1,0,3.408Z" transform="translate(-1943.797 -511.042)"/>
        </g>
        <g id="그룹_10052" data-name="그룹 10052" transform="translate(136.346 136.345)">
          <path id="패스_26404" data-name="패스 26404" d="M1970.168,507.83h-13.634a1.7,1.7,0,1,1,0-3.407h13.634a1.7,1.7,0,1,1,0,3.407Z" transform="translate(-1954.83 -504.423)"/>
        </g>
        <g id="그룹_10053" data-name="그룹 10053" transform="translate(0.068 12.939)">
          <path id="패스_26405" data-name="패스 26405" d="M2007.385,539.116H1876.393a9.783,9.783,0,0,1-9.773-9.77V434.317a9.783,9.783,0,0,1,9.773-9.772h32.767a1.7,1.7,0,0,1,1.7,1.7V486.6h61.362c.083-23.661.156-57.8.014-60.072a1.706,1.706,0,0,1,1.683-1.979h33.463a9.783,9.783,0,0,1,9.772,9.772v95.029A9.782,9.782,0,0,1,2007.385,539.116ZM1876.393,427.953a6.371,6.371,0,0,0-6.363,6.364v95.029a6.37,6.37,0,0,0,6.363,6.362h130.992a6.37,6.37,0,0,0,6.362-6.362V434.317a6.371,6.371,0,0,0-6.362-6.364h-31.7c0,.3.008.635.011,1.012.015,1.628.026,4.008.032,7.073.009,5.16.006,12.335-.011,21.326-.028,15.309-.085,30.787-.087,30.943a1.7,1.7,0,0,1-1.7,1.7H1909.16a1.7,1.7,0,0,1-1.7-1.7V427.953Zm96.2-.637c.034.043.073.085.111.125A1.107,1.107,0,0,1,1972.6,427.317Z" transform="translate(-1866.62 -424.545)"/>
        </g>
        <g id="그룹_10054" data-name="그룹 10054" transform="translate(40.904)">
          <path id="패스_26406" data-name="패스 26406" d="M1959.52,494.568h-64.763a1.7,1.7,0,0,1-1.7-1.7v-74.99a1.7,1.7,0,0,1,1.7-1.7h51.128a1.7,1.7,0,0,1,1.206.5l13.634,13.634a1.7,1.7,0,0,1,.5,1.205v61.355A1.7,1.7,0,0,1,1959.52,494.568Zm-63.06-3.408h61.356V432.214l-12.636-12.636H1896.46Z" transform="translate(-1893.052 -416.17)"/>
        </g>
        <g id="그룹_10055" data-name="그룹 10055" transform="translate(92.033)">
          <path id="패스_26407" data-name="패스 26407" d="M1941.485,433.212h-13.633a1.705,1.705,0,0,1-1.705-1.7V417.874a1.7,1.7,0,0,1,3.41,0V429.8h11.93a1.7,1.7,0,1,1,0,3.408Z" transform="translate(-1926.147 -416.17)"/>
        </g>
        <g id="그룹_10056" data-name="그룹 10056" transform="translate(51.13 10.226)">
          <path id="패스_26408" data-name="패스 26408" d="M1945.687,453.467h-44.312a1.7,1.7,0,0,1-1.7-1.7v-27.27a1.7,1.7,0,0,1,1.7-1.7h30.678a1.7,1.7,0,1,1,0,3.408h-28.974v23.86h40.9v-11.93a1.7,1.7,0,1,1,3.408,0v13.636A1.7,1.7,0,0,1,1945.687,453.467Z" transform="translate(-1899.671 -422.789)"/>
        </g>
        <g id="그룹_10057" data-name="그룹 10057" transform="translate(51.13 51.13)">
          <path id="패스_26409" data-name="패스 26409" d="M1945.687,452.673h-44.312a1.7,1.7,0,0,1,0-3.408h44.312a1.7,1.7,0,1,1,0,3.408Z" transform="translate(-1899.671 -449.265)"/>
        </g>
        <g id="그룹_10058" data-name="그룹 10058" transform="translate(88.623 61.355)">
          <path id="패스_26410" data-name="패스 26410" d="M1932.462,459.292h-6.818a1.7,1.7,0,1,1,0-3.408h6.818a1.7,1.7,0,0,1,0,3.408Z" transform="translate(-1923.94 -455.884)"/>
        </g>
        <g id="그룹_10059" data-name="그룹 10059" transform="translate(74.989 61.355)">
          <path id="패스_26411" data-name="패스 26411" d="M1920.229,459.292h-3.41a1.7,1.7,0,1,1,0-3.408h3.41a1.7,1.7,0,0,1,0,3.408Z" transform="translate(-1915.115 -455.884)"/>
        </g>
        <g id="그룹_10060" data-name="그룹 10060" transform="translate(51.13 61.355)">
          <path id="패스_26412" data-name="패스 26412" d="M1911.6,459.292h-10.226a1.7,1.7,0,0,1,0-3.408H1911.6a1.7,1.7,0,1,1,0,3.408Z" transform="translate(-1899.671 -455.884)"/>
        </g>
      </g>
      <g id="그룹_10062" data-name="그룹 10062" transform="translate(1934.748 436.622)">
        <path id="패스_26413" data-name="패스 26413" d="M1915.816,439.634a5.113,5.113,0,1,1,5.113-5.114A5.12,5.12,0,0,1,1915.816,439.634Zm0-6.818a1.7,1.7,0,1,0,1.7,1.7A1.705,1.705,0,0,0,1915.816,432.816Z" transform="translate(-1910.702 -429.408)"/>
      </g>
      <path id="패스_26414" data-name="패스 26414" d="M1915.443,487.02a3.573,3.573,0,1,1-3.573,3.573A3.575,3.575,0,0,1,1915.443,487.02Z" transform="translate(24.682 38.609)"/>
    </g>
  </g>
</svg>
