<svg xmlns="http://www.w3.org/2000/svg" xmlns:xlink="http://www.w3.org/1999/xlink" width="210" height="210" viewBox="0 0 210 210">
  <defs>
    <clipPath id="clip-path">
      <rect id="사각형_27152" data-name="사각형 27152" width="210" height="210" transform="translate(1355 1390)" fill="#fff" stroke="#707070" stroke-width="1"/>
    </clipPath>
  </defs>
  <g id="마스크_그룹_9344" data-name="마스크 그룹 9344" transform="translate(-1355 -1390)" clip-path="url(#clip-path)">
    <g id="그룹_10084" data-name="그룹 10084" transform="translate(-316.647 1166.558)">
      <g id="그룹_10084-2" data-name="그룹 10084" transform="translate(1691.182 243.306)">
        <path id="패스_26432" data-name="패스 26432" d="M1832.817,348.678h-23.973V320.189a11.511,11.511,0,0,0-11.512-11.512h-44.463a11.512,11.512,0,0,0-11.512,11.512v28.489h-27.585a25.545,25.545,0,0,1-25.565-25.565c0-.3.01-.588.02-.864v-.013c-.014-.4-.021-.762-.021-1.1a31.166,31.166,0,0,1,27.183-30.908,41.612,41.612,0,0,1,78.264-26.575,28.026,28.026,0,0,1,39.6,33.9,25.565,25.565,0,0,1-.441,51.126Zm-19.973-4h19.973a21.565,21.565,0,1,0,0-43.129h-5.7l1.357-2.858a24.014,24.014,0,0,0-34.662-30.5l-2.02,1.3-.911-2.221a37.61,37.61,0,0,0-71.07,24.219l.657,2.4-2.486.124a27.16,27.16,0,0,0-25.776,27.124c0,.311.007.647.02,1.03l0,.071-.005.156c-.009.253-.017.491-.017.722a21.545,21.545,0,0,0,21.565,21.565h23.585V320.189a15.512,15.512,0,0,1,15.512-15.512h44.463a15.511,15.511,0,0,1,15.512,15.512Z" transform="translate(-1690.207 -241.916)"/>
        <path id="패스_26433" data-name="패스 26433" d="M1782.269,386.619h-44.463a15.512,15.512,0,0,1-15.512-15.512V314.572h4v56.535a11.512,11.512,0,0,0,11.512,11.512h44.463a11.511,11.511,0,0,0,11.512-11.512V314.572h4v56.535a15.511,15.511,0,0,1-15.512,15.512Z" transform="translate(-1675.145 -209.81)"/>
      </g>
      <rect id="사각형_27153" data-name="사각형 27153" width="47.493" height="81.833" rx="5.394" transform="translate(1752.699 324.503)" fill="#e6cdf8"/>
      <path id="사각형_27153_-_윤곽선" data-name="사각형 27153 - 윤곽선" d="M5.394-2H42.1a7.4,7.4,0,0,1,7.394,7.394V76.44A7.4,7.4,0,0,1,42.1,83.833H5.394A7.4,7.4,0,0,1-2,76.44V5.394A7.4,7.4,0,0,1,5.394-2ZM42.1,79.833a3.4,3.4,0,0,0,3.394-3.394V5.394A3.4,3.4,0,0,0,42.1,2H5.394A3.4,3.4,0,0,0,2,5.394V76.44a3.4,3.4,0,0,0,3.394,3.394Z" transform="translate(1752.699 324.503)"/>
      <path id="선_153" data-name="선 153" d="M13.874,2H0V-2H13.874Z" transform="translate(1762.571 344.347)"/>
      <path id="선_154" data-name="선 154" d="M16.009,2H0V-2H16.009Z" transform="translate(1776.446 353.889)"/>
      <path id="선_155" data-name="선 155" d="M18.677,2H0V-2H18.677Z" transform="translate(1762.571 365.419)"/>
      <path id="선_156" data-name="선 156" d="M16.009,2H0V-2H16.009Z" transform="translate(1776.446 380.6)"/>
      <path id="선_157" data-name="선 157" d="M2,38.589H-2V0H2Z" transform="translate(1721.364 362.013)"/>
      <path id="선_158" data-name="선 158" d="M1.414,9.573-1.414,6.744,6.744-1.414,9.573,1.414Z" transform="translate(1713.205 362.013)"/>
      <path id="선_159" data-name="선 159" d="M6.744,9.573-1.414,1.414,1.414-1.414,9.573,6.744Z" transform="translate(1721.364 362.013)"/>
      <path id="타원_337" data-name="타원 337" d="M7.654-2A9.654,9.654,0,1,1-2,7.654,9.665,9.665,0,0,1,7.654-2Zm0,15.307A5.654,5.654,0,1,0,2,7.654,5.66,5.66,0,0,0,7.654,13.307Z" transform="translate(1688 375.591)"/>
      <path id="타원_338" data-name="타원 338" d="M3.8-2A5.8,5.8,0,1,1-2,3.8,5.807,5.807,0,0,1,3.8-2Zm0,7.6A1.8,1.8,0,1,0,2,3.8,1.8,1.8,0,0,0,3.8,5.6Z" transform="translate(1717.563 408.27)"/>
      <g id="그룹_10085" data-name="그룹 10085" transform="translate(1819.407 362.013)">
        <path id="선_160" data-name="선 160" d="M2,38.589H-2V0H2Z" transform="translate(8.159)"/>
        <path id="선_161" data-name="선 161" d="M1.414,9.573-1.414,6.744,6.744-1.414,9.573,1.414Z" transform="translate(8.159 30.43)"/>
        <path id="선_162" data-name="선 162" d="M6.744,9.573-1.414,1.414,1.414-1.414,9.573,6.744Z" transform="translate(0 30.43)"/>
      </g>
      <path id="타원_339" data-name="타원 339" d="M3.8-2A5.8,5.8,0,1,1-2,3.8,5.807,5.807,0,0,1,3.8-2Zm0,7.6A1.8,1.8,0,1,0,2,3.8,1.8,1.8,0,0,0,3.8,5.6Z" transform="translate(1823.765 408.27)"/>
      <path id="타원_340" data-name="타원 340" d="M8.719-2A10.719,10.719,0,0,1,19.439,8.719,10.719,10.719,0,0,1,8.719,19.439,10.719,10.719,0,0,1-2,8.719,10.719,10.719,0,0,1,8.719-2Zm0,17.439A6.719,6.719,0,1,0,2,8.719,6.727,6.727,0,0,0,8.719,15.439Z" transform="translate(1698.534 238.77)"/>
      <path id="타원_341" data-name="타원 341" d="M4.077-2A6.077,6.077,0,1,1-2,4.077,6.084,6.084,0,0,1,4.077-2Zm0,8.154A2.077,2.077,0,1,0,2,4.077,2.079,2.079,0,0,0,4.077,6.154Z" transform="translate(1693.457 271.438)"/>
      <path id="타원_342" data-name="타원 342" d="M3.72-2A5.72,5.72,0,1,1-2,3.72,5.726,5.726,0,0,1,3.72-2Zm0,7.44A1.72,1.72,0,1,0,2,3.72,1.722,1.722,0,0,0,3.72,5.44Z" transform="translate(1808.099 241.91)"/>
      <path id="타원_343" data-name="타원 343" d="M11.937-2A13.937,13.937,0,0,1,25.875,11.937,13.937,13.937,0,0,1,11.937,25.875,13.937,13.937,0,0,1-2,11.937,13.937,13.937,0,0,1,11.937-2Zm0,23.875A9.937,9.937,0,1,0,2,11.937,9.949,9.949,0,0,0,11.937,21.875Z" transform="translate(1836.409 251.05)"/>
      <path id="타원_344" data-name="타원 344" d="M4.076-2A6.076,6.076,0,1,1-2,4.076,6.083,6.083,0,0,1,4.076-2Zm0,8.153A2.076,2.076,0,1,0,2,4.076,2.079,2.079,0,0,0,4.076,6.153Z" transform="translate(1854.302 288.045)"/>
      <path id="타원_345" data-name="타원 345" d="M10.992-2A12.992,12.992,0,0,1,23.984,10.992,12.992,12.992,0,0,1,10.992,23.984,12.992,12.992,0,0,1-2,10.992,12.992,12.992,0,0,1,10.992-2Zm0,21.984A8.992,8.992,0,1,0,2,10.992,9,9,0,0,0,10.992,19.984Z" transform="translate(1843.311 358.615)"/>
    </g>
  </g>
</svg>
