<svg xmlns="http://www.w3.org/2000/svg" xmlns:xlink="http://www.w3.org/1999/xlink" width="809" height="446" viewBox="0 0 809 446"><defs><linearGradient id="a" x1="0.723" y1="0.5" x2="0.739" y2="1.649" gradientUnits="objectBoundingBox"><stop offset="0" stop-color="#602b8a"/><stop offset="1" stop-color="#edb9d1"/></linearGradient><filter id="e" x="176.469" y="30.11" width="232" height="232" filterUnits="userSpaceOnUse"><feOffset dy="16" input="SourceAlpha"/><feGaussianBlur stdDeviation="20" result="f"/><feFlood flood-opacity="0.204"/><feComposite operator="in" in2="f"/><feComposite in="SourceGraphic"/></filter><filter id="g" x="401.531" y="80.991" width="240.158" height="240.158" filterUnits="userSpaceOnUse"><feOffset dy="16" input="SourceAlpha"/><feGaussianBlur stdDeviation="20" result="h"/><feFlood flood-opacity="0.204"/><feComposite operator="in" in2="h"/><feComposite in="SourceGraphic"/></filter><filter id="i" x="325.89" y="0" width="158.221" height="158.221" filterUnits="userSpaceOnUse"><feOffset dy="20" input="SourceAlpha"/><feGaussianBlur stdDeviation="10" result="j"/><feFlood flood-opacity="0.082"/><feComposite operator="in" in2="j"/><feComposite in="SourceGraphic"/></filter></defs><g transform="translate(6595.61 -9270.89)"><g transform="translate(-6516.11 9460.438)"><line x2="119.89" y2="29" transform="translate(85.11)" fill="none" stroke="#602b8a" stroke-linecap="round" stroke-width="4" stroke-dasharray="0 8"/><line x2="124" y2="38" transform="translate(448 84)" fill="none" stroke="#602b8a" stroke-linecap="round" stroke-width="4" stroke-dasharray="0 8"/><line y1="92" x2="90.5" transform="translate(571.5 30)" fill="none" stroke="#602b8a" stroke-linecap="round" stroke-width="4" stroke-dasharray="0 8"/><line y1="58" x2="85.11" fill="none" stroke="#602b8a" stroke-linecap="round" stroke-width="4" stroke-dasharray="0 8"/></g><g transform="translate(-6315.61 9412.932)"><path d="M2836.369,1249.256H2629.485a2.8,2.8,0,0,0-2.614,2.593v118.74a2.8,2.8,0,0,0,2.614,2.588h206.884a2.8,2.8,0,0,0,2.61-2.588V1252.281A2.9,2.9,0,0,0,2836.369,1249.256ZM2833.321,1368H2632.1V1254.873h201.654V1368Z" transform="translate(-2608.708 -1231.879)" fill="url(#a)"/><path d="M2630.546,1248.756h206.893a4.455,4.455,0,0,1,4.171,4.59v118.308a4.327,4.327,0,0,1-4.171,4.154H2630.546a4.329,4.329,0,0,1-4.175-4.154v-118.74A4.331,4.331,0,0,1,2630.546,1248.756Zm206.893,123.921a1.277,1.277,0,0,0,1.049-1.023V1253.346a1.388,1.388,0,0,0-1.049-1.459H2630.546a1.283,1.283,0,0,0-1.053,1.027v118.74a1.28,1.28,0,0,0,1.053,1.023Zm-205.841-118.3h204.785v116.253H2631.6Zm201.663,3.131H2634.72V1367.5h198.54Z" transform="translate(-2609.774 -1232.942)" fill="url(#a)"/><path d="M2845,1242.808H2640.213a19.851,19.851,0,0,0-20.042,19.767v132.35a19.856,19.856,0,0,0,20.042,19.769h58.821v.425a13.481,13.481,0,0,0,13.506,13.32h8.281v16.332h-20.479a9.454,9.454,0,1,0,0,18.906h84.527a9.454,9.454,0,1,0,0-18.906h-20.479v-16.332h8.282a13.481,13.481,0,0,0,13.507-13.32v-.425H2845a19.855,19.855,0,0,0,20.043-19.769v-132.35C2865.039,1251.4,2856.324,1242.808,2845,1242.808Zm-56.206,210.559a3.876,3.876,0,0,1-3.923,3.864h-84.527a3.867,3.867,0,1,1,0-7.733h84.527A3.881,3.881,0,0,1,2788.79,1453.366Zm-29.628-9.028h-32.679v-16.327h32.679Zm21.787-29.645a7.758,7.758,0,0,1-7.845,7.733H2712.54a7.754,7.754,0,0,1-7.841-7.733v-.434l76.25.434Zm78.863-19.769A14.594,14.594,0,0,1,2845,1409.536H2640.213a14.592,14.592,0,0,1-14.813-14.611v-132.35a14.59,14.59,0,0,1,14.813-14.611H2845a14.592,14.592,0,0,1,14.815,14.611Z" transform="translate(-2618.604 -1241.242)" fill="url(#a)"/><path d="M2641.275,1242.308h204.791a21.689,21.689,0,0,1,15.368,6.144,21.118,21.118,0,0,1,6.237,15.182v132.359a21.117,21.117,0,0,1-6.229,15.013,21.561,21.561,0,0,1-15.376,6.315h-57.3a14.7,14.7,0,0,1-4.4,9.377,15.058,15.058,0,0,1-10.629,4.37h-6.72v13.217h18.918a11.129,11.129,0,0,1,7.852,3.243,10.805,10.805,0,0,1,0,15.537,11.126,11.126,0,0,1-7.852,3.243h-84.529a11.128,11.128,0,0,1-7.853-3.243,10.8,10.8,0,0,1,0-15.537,11.126,11.126,0,0,1,7.852-3.243h18.918v-13.217H2713.6a15.056,15.056,0,0,1-10.628-4.37,14.7,14.7,0,0,1-4.4-9.377h-57.3a21.68,21.68,0,0,1-15.2-6.136,21.006,21.006,0,0,1-6.409-15.192V1263.634a21.115,21.115,0,0,1,6.229-15.013A21.56,21.56,0,0,1,2641.275,1242.308Zm204.791,171.9a18.448,18.448,0,0,0,13.163-5.4,18.021,18.021,0,0,0,5.319-12.814V1263.634a18.027,18.027,0,0,0-5.31-12.966,18.581,18.581,0,0,0-13.172-5.244H2641.275a18.451,18.451,0,0,0-13.163,5.4,18.024,18.024,0,0,0-5.317,12.813v132.359a17.917,17.917,0,0,0,5.465,12.96,18.569,18.569,0,0,0,13.016,5.253h60.385v1.983a11.587,11.587,0,0,0,3.512,8.293,11.945,11.945,0,0,0,8.432,3.47h9.843V1447.4h-22.042a7.9,7.9,0,1,0,0,15.79h84.529a7.9,7.9,0,1,0,0-15.79h-22.041v-19.449h9.844a11.948,11.948,0,0,0,8.433-3.47,11.583,11.583,0,0,0,3.512-8.293v-1.983Zm-204.791-166.742h204.791a16.407,16.407,0,0,1,11.61,4.693,15.985,15.985,0,0,1,4.767,11.477v132.359a15.986,15.986,0,0,1-4.767,11.476,16.409,16.409,0,0,1-11.61,4.694H2641.275a16.4,16.4,0,0,1-11.608-4.694,15.988,15.988,0,0,1-4.767-11.476V1263.634a15.988,15.988,0,0,1,4.767-11.477A16.4,16.4,0,0,1,2641.275,1247.464Zm204.791,161.583a13.015,13.015,0,0,0,13.254-13.054V1263.634a13.015,13.015,0,0,0-13.254-13.054H2641.275a13.013,13.013,0,0,0-13.251,13.054v132.359a13.014,13.014,0,0,0,13.251,13.054Zm-141.864,4.715,1.571.009,77.8.443v1.55a9.176,9.176,0,0,1-2.754,6.586,9.41,9.41,0,0,1-6.653,2.705H2713.6a9.409,9.409,0,0,1-6.652-2.705,9.184,9.184,0,0,1-2.75-6.586Zm76.061,3.549-72.836-.415a6.173,6.173,0,0,0,6.177,5.042h60.567A6.185,6.185,0,0,0,2780.262,1417.311Zm-54.276,10.214h35.8v19.444h-35.8Zm32.68,3.116h-29.557v13.211h29.557Zm-57.261,18.37h84.529a5.425,5.425,0,1,1,0,10.85h-84.529a5.425,5.425,0,1,1,0-10.85Zm84.529,7.734a2.309,2.309,0,1,0,0-4.618h-84.529a2.309,2.309,0,1,0,0,4.618Z" transform="translate(-2619.67 -1242.308)" fill="url(#a)"/></g><g transform="translate(-6358.142 9346)"><line x2="98" y2="91" transform="translate(68.531 76.5)" fill="none" stroke="#707070" stroke-linecap="round" stroke-width="4" stroke-dasharray="0 8" opacity="0.3"/><line x1="0.5" y2="158.475" transform="translate(166.531 16.5)" fill="none" stroke="#707070" stroke-linecap="round" stroke-width="4" stroke-dasharray="0 8" opacity="0.3"/><line x1="96" y2="81" transform="translate(167.031 86.5)" fill="none" stroke="#707070" stroke-linecap="round" stroke-width="4" stroke-dasharray="0 8" opacity="0.3"/><g transform="matrix(1, 0, 0, 1, -237.47, -75.11)" filter="url(#e)"><circle cx="55" cy="55" r="55" transform="translate(237.47 75.11)" fill="#fff" stroke="#602b8a" stroke-width="2"/></g><g transform="translate(29.883 23.975)"><path d="M723.393,1559.97H691.681a1.277,1.277,0,0,0-1.277,1.278v26.593a1.277,1.277,0,0,0,1.277,1.278h5.654v8.962a3.765,3.765,0,1,0,7.53,0v-8.962h5.266v8.962a3.765,3.765,0,1,0,7.53,0v-8.962h5.732a1.277,1.277,0,0,0,1.277-1.278v-26.593A1.278,1.278,0,0,0,723.393,1559.97Z" transform="translate(-681.27 -1539.332)" fill="#aac148"/><path d="M3.765,1559.5A3.765,3.765,0,0,0,0,1563.265v15.292a3.765,3.765,0,1,0,7.53,0v-15.292A3.765,3.765,0,0,0,3.765,1559.5Z" transform="translate(0 -1538.868)" fill="#aac148"/><path d="M3405.445,1559.5a3.765,3.765,0,0,0-3.765,3.765v15.292a3.765,3.765,0,0,0,7.53,0v-15.292A3.765,3.765,0,0,0,3405.445,1559.5Z" transform="translate(-3356.676 -1538.868)" fill="#aac148"/><path d="M710.983,18.773h31.124a1.279,1.279,0,0,0,1.251-1.543A17.2,17.2,0,0,0,734.965,5.8L737.626,1a.673.673,0,0,0-1.177-.652l-2.681,4.837a17.22,17.22,0,0,0-14.446,0L716.641.347A.673.673,0,1,0,715.464,1l2.661,4.8a17.2,17.2,0,0,0-8.393,11.431A1.279,1.279,0,0,0,710.983,18.773Zm24.849-7.154a1.447,1.447,0,1,1-1.447-1.447A1.447,1.447,0,0,1,735.832,11.619ZM718.7,10.171a1.447,1.447,0,1,1-1.447,1.447A1.447,1.447,0,0,1,718.7,10.171Z" transform="translate(-700.315 0)" fill="#aac148"/></g></g><text transform="translate(-6190.61 9680.89)" fill="#602b8a" font-size="26" font-family="Pretendard-SemiBold, Pretendard" font-weight="600"><tspan x="-73.58" y="0">하이브리드 앱 </tspan><tspan x="-44.928" y="30">실행환경</tspan></text><g transform="translate(-6595.61 9522.926)" fill="#602b8a" stroke="#602b8a" stroke-width="3"><rect width="160" height="80" rx="10" stroke="none"/><rect x="1.5" y="1.5" width="157" height="77" rx="8.5" fill="none"/></g><g transform="translate(-5946.61 9430.954)" fill="#602b8a" stroke="#602b8a" stroke-width="3"><rect width="160" height="80" rx="10" stroke="none"/><rect x="1.5" y="1.5" width="157" height="77" rx="8.5" fill="none"/></g><text transform="translate(-6515.61 9572.928)" fill="#fff" font-size="26" font-family="Pretendard-ExtraBold, Pretendard" font-weight="800"><tspan x="-44.954" y="0">HTML5</tspan></text><text transform="translate(-5866.61 9480.953)" fill="#fff" font-size="26" font-family="Pretendard-ExtraBold, Pretendard" font-weight="800"><tspan x="-46.839" y="0">W-Hive</tspan></text><g transform="translate(-6133.079 9396.881)"><g transform="matrix(1, 0, 0, 1, -462.53, -125.99)" filter="url(#g)"><circle cx="59.079" cy="59.079" r="59.079" transform="translate(462.53 125.99)" fill="#fff" stroke="#602b8a" stroke-width="2"/></g><path d="M41.731,31.388c-.026-4.867,2.175-8.54,6.63-11.245-2.493-3.567-6.259-5.53-11.232-5.914-4.707-.371-9.853,2.745-11.735,2.745-1.989,0-6.551-2.612-10.131-2.612C7.863,14.48,0,20.262,0,32.024A33.05,33.05,0,0,0,1.91,42.792c1.7,4.867,7.824,16.8,14.215,16.6,3.342-.08,5.7-2.374,10.051-2.374,4.217,0,6.4,2.374,10.131,2.374,6.445-.093,11.987-10.94,13.605-15.82C41.267,39.5,41.731,31.64,41.731,31.388ZM34.225,9.614A12.488,12.488,0,0,0,37.408,0a14.061,14.061,0,0,0-9,4.628,12.685,12.685,0,0,0-3.395,9.534C28.47,14.427,31.626,12.651,34.225,9.614Z" transform="translate(34.823 29.627)"/></g><g transform="translate(-6238.721 9281.89)"><g transform="matrix(1, 0, 0, 1, -356.89, -11)" filter="url(#i)"><circle cx="48.11" cy="48.11" r="48.11" transform="translate(356.89 11)" fill="#fff" stroke="#602b8a" stroke-width="2"/></g><path d="M234.935,251.284q11.347-1.735,22.723-3.3.008,9.963,0,19.921c-7.574.029-15.145.144-22.727.169Q234.928,259.675,234.935,251.284Zm-19.212,2.68c5.7-.879,11.417-1.637,17.138-2.351q.007,8.263.009,16.521c-5.715,0-11.432.082-17.147.067ZM228.238,292.8c.375-.239.854.259.635.635a.458.458,0,0,1-.711.178.488.488,0,0,1,.076-.813Zm9.814-.049h.721v6.725h-.718c0-.244,0-.488-.02-.731a1.827,1.827,0,0,1-2.705.447,2.471,2.471,0,0,1-.711-2,2.569,2.569,0,0,1,.827-1.983,1.778,1.778,0,0,1,2.612.328c-.01-.927,0-1.854-.005-2.781Zm-1.553,2.658a1.4,1.4,0,0,0-1.075,1.161,2.457,2.457,0,0,0,.3,1.972,1.271,1.271,0,0,0,1.791.16,1.3,1.3,0,0,0,.12-.114,1.825,1.825,0,0,0,.42-1.278,2.168,2.168,0,0,0-.274-1.419,1.265,1.265,0,0,0-1.279-.481Zm-17.206-2.3c.27,0,.541,0,.812,0,.422,1.523.837,3.048,1.26,4.572a6.443,6.443,0,0,1,.2.978c.439-1.87,1.04-3.7,1.544-5.554l.7,0c.371,1.32.718,2.646,1.086,3.967a10.707,10.707,0,0,1,.367,1.589c.4-1.868.964-3.7,1.415-5.553.267,0,.533,0,.8,0-.581,2.125-1.187,4.244-1.776,6.365h-.866c-.426-1.524-.849-3.049-1.28-4.571a3.888,3.888,0,0,1-.125-.755,6.377,6.377,0,0,1-.121.657c-.436,1.553-.878,3.1-1.3,4.655-.288.015-.577.017-.865.014Q220.215,296.29,219.294,293.105Zm11.423,2.538a1.726,1.726,0,0,1,2.148-.731,1.646,1.646,0,0,1,.865,1.561c.034,1,.006,2,.014,3h-.721c-.011-.96.025-1.921-.017-2.881a1.158,1.158,0,0,0-.738-1.169,1.266,1.266,0,0,0-1.534,1.2c-.022.95,0,1.9-.008,2.851H230q0-2.282,0-4.563h.722C230.725,295.153,230.724,295.4,230.717,295.643Zm10.859-.847a2.328,2.328,0,0,1,1.838.51,2.541,2.541,0,0,1,.677,2,2.454,2.454,0,0,1-.717,1.743,2.27,2.27,0,0,1-3.43-.531,2.8,2.8,0,0,1,.5-3.235,2.572,2.572,0,0,1,1.129-.486Zm-.129.653c-1.059.325-1.237,1.708-.907,2.617a1.473,1.473,0,0,0,2.025.788,1.541,1.541,0,0,0,.773-1.307,2.274,2.274,0,0,0-.419-1.753,1.439,1.439,0,0,0-1.473-.346Zm11.058-.656a3.073,3.073,0,0,1,1.333.178c.117.224.026.518.054.768a1.74,1.74,0,0,0-1.751-.2.618.618,0,0,0-.028,1.031c.525.34,1.191.429,1.658.866a1.2,1.2,0,0,1-.067,1.7,1.189,1.189,0,0,1-.145.115,2.612,2.612,0,0,1-2.461.065c0-.269,0-.538-.006-.807a1.98,1.98,0,0,0,1.964.351.622.622,0,0,0,.215-.853.628.628,0,0,0-.15-.17c-.525-.387-1.244-.447-1.71-.931a1.187,1.187,0,0,1,.1-1.677l.038-.032a2.241,2.241,0,0,1,.96-.411Zm-24.421.117h.721v4.563h-.721v-4.562Zm16.308,0h.753c.3,1.087.586,2.176.89,3.262a3.339,3.339,0,0,1,.105.627c.34-1.309.77-2.594,1.156-3.89l.657,0c.329,1.3.741,2.575,1.015,3.885.282-1.3.682-2.577,1-3.873.242-.012.483-.015.726-.018-.458,1.522-.9,3.048-1.356,4.567h-.747c-.324-1.237-.744-2.45-1.008-3.7-.314,1.249-.749,2.464-1.106,3.7h-.722c-.454-1.523-.915-3.041-1.36-4.566Zm-28.668-24.977c5.711-.019,11.422.073,17.132.062,0,5.523.014,11.046.006,16.569-5.706-.847-11.422-1.585-17.138-2.358Zm19.178.221h22.757q.014,9.934,0,19.874c-7.565-1.129-15.145-2.185-22.723-3.212Q234.92,278.486,234.9,270.154Z" transform="translate(-188.584 -225.683)" fill="#0093d6"/></g><g transform="translate(-6211.61 9490.89)" fill="#fff" stroke="#e6cdf8" stroke-width="3"><circle cx="20" cy="20" r="20" stroke="none"/><circle cx="20" cy="20" r="18.5" fill="none"/></g><g transform="translate(-6202.61 9499.89)" fill="#fff" stroke="#e6cdf8" stroke-width="3"><circle cx="11" cy="11" r="11" stroke="none"/><circle cx="11" cy="11" r="9.5" fill="none"/></g></g></svg>