<svg xmlns="http://www.w3.org/2000/svg" width="13.357" height="13.998" viewBox="0 0 13.357 13.998">
  <path id="Theme" d="M185.271,133.63l.688-.7,7.2,7.2a1.526,1.526,0,0,1,.456,1.108,1.47,1.47,0,0,1-.45,1.088l-3.51,3.526a1.458,1.458,0,0,1-2.09,0l-3.5-3.526a1.473,1.473,0,0,1-.45-1.089,1.5,1.5,0,0,1,.45-1.1l3.859-3.846Zm3.351,3.351L184.59,141a.2.2,0,0,0-.053.086.357.357,0,0,0-.012.094h8.186a.274.274,0,0,0-.016-.094.3.3,0,0,0-.049-.086Zm6.984,9.945a1.313,1.313,0,0,1-.968-.4,1.327,1.327,0,0,1-.4-.97,1.836,1.836,0,0,1,.162-.736,5.053,5.053,0,0,1,.42-.764q.162-.253.375-.532t.414-.532q.2.253.414.532a6.3,6.3,0,0,1,.367.532,5.053,5.053,0,0,1,.42.764,1.835,1.835,0,0,1,.162.736,1.375,1.375,0,0,1-1.368,1.372Z" transform="translate(-183.615 -132.93)" fill="#20252a"/>
</svg>
