<svg xmlns="http://www.w3.org/2000/svg" width="12" height="10.038" viewBox="0 0 12 10.038">
  <path id="manage_accounts_FILL0_wght400_GRAD0_opsz48" d="M84.83-780.472a2.207,2.207,0,0,1-1.63-.634,2.207,2.207,0,0,1-.634-1.63,2.207,2.207,0,0,1,.634-1.63A2.207,2.207,0,0,1,84.83-785a2.207,2.207,0,0,1,1.63.634,2.207,2.207,0,0,1,.634,1.63,2.207,2.207,0,0,1-.634,1.63A2.207,2.207,0,0,1,84.83-780.472ZM80-775.626v-1.419a1.757,1.757,0,0,1,.264-.951,1.7,1.7,0,0,1,.762-.649,11.062,11.062,0,0,1,2.015-.694,8.055,8.055,0,0,1,1.789-.211h.347a2.345,2.345,0,0,0-.136.415,4.449,4.449,0,0,0-.075.491H84.83a7.776,7.776,0,0,0-1.713.189,7.835,7.835,0,0,0-1.728.626.819.819,0,0,0-.362.34.912.912,0,0,0-.121.445v.513h4.06a2.937,2.937,0,0,0,.181.491,2.368,2.368,0,0,0,.257.415Zm8.86.664-.151-1a2.677,2.677,0,0,1-.521-.219,1.917,1.917,0,0,1-.445-.325l-.83.181-.377-.634.709-.664a1.83,1.83,0,0,1-.03-.377,1.831,1.831,0,0,1,.03-.377l-.709-.664.377-.634.83.181a1.921,1.921,0,0,1,.445-.325,2.677,2.677,0,0,1,.521-.219l.151-1h.815l.151,1a2.677,2.677,0,0,1,.521.219,1.921,1.921,0,0,1,.445.325l.83-.181.377.634-.709.664a1.831,1.831,0,0,1,.03.377,1.83,1.83,0,0,1-.03.377l.709.664-.377.634-.83-.181a1.917,1.917,0,0,1-.445.325,2.678,2.678,0,0,1-.521.219l-.151,1Zm.408-1.826a1.184,1.184,0,0,0,.875-.332,1.184,1.184,0,0,0,.332-.875,1.184,1.184,0,0,0-.332-.875,1.184,1.184,0,0,0-.875-.332,1.184,1.184,0,0,0-.875.332,1.184,1.184,0,0,0-.332.875,1.184,1.184,0,0,0,.332.875A1.184,1.184,0,0,0,89.268-776.789Zm-4.438-4.589a1.319,1.319,0,0,0,.974-.385,1.319,1.319,0,0,0,.385-.974,1.32,1.32,0,0,0-.385-.974,1.32,1.32,0,0,0-.974-.385,1.32,1.32,0,0,0-.974.385,1.32,1.32,0,0,0-.385.974,1.319,1.319,0,0,0,.385.974A1.319,1.319,0,0,0,84.83-781.377ZM84.83-782.736ZM84.966-776.532Z" transform="translate(-80 785)" fill="#3a4561"/>
</svg>
