<svg id="그룹_4308" data-name="그룹 4308" xmlns="http://www.w3.org/2000/svg" width="19.6" height="19.733" viewBox="0 0 19.6 19.733">
  <path id="타원_203" data-name="타원 203" d="M8.8-1a9.7,9.7,0,0,1,6.93,2.89,9.914,9.914,0,0,1,0,13.954,9.753,9.753,0,0,1-13.859,0,9.914,9.914,0,0,1,0-13.954A9.7,9.7,0,0,1,8.8-1Zm0,17.939A8.073,8.073,0,1,0,.782,8.867,8.055,8.055,0,0,0,8.8,16.939Z" transform="translate(1 1)" fill="#a1a9b8"/>
  <path id="선_593" data-name="선 593" d="M-.291,4.673a.707.707,0,0,1-.5-.208.709.709,0,0,1,0-1L3.462-.792a.709.709,0,0,1,1,0,.709.709,0,0,1,0,1L.21,4.465A.707.707,0,0,1-.291,4.673Z" transform="translate(7.968 8.031)" fill="#a1a9b8"/>
  <path id="선_594" data-name="선 594" d="M3.964,4.673a.707.707,0,0,1-.5-.208L-.792.21a.709.709,0,0,1,0-1,.709.709,0,0,1,1,0L4.465,3.462a.709.709,0,0,1-.5,1.21Z" transform="translate(7.968 8.031)" fill="#a1a9b8"/>
</svg>
