<svg xmlns="http://www.w3.org/2000/svg" width="12" height="12" viewBox="0 0 12 12">
  <path id="settings_applications_FILL0_wght400_GRAD0_opsz48" d="M125.533-830.767h.933l.167-.9a2.231,2.231,0,0,0,.567-.25,2.6,2.6,0,0,0,.433-.35l1.033.317.433-.9-.783-.5a3.488,3.488,0,0,0,.067-.65,3.488,3.488,0,0,0-.067-.65l.783-.5-.433-.9-1.033.317a2.6,2.6,0,0,0-.433-.35,2.229,2.229,0,0,0-.567-.25l-.167-.9h-.933l-.167.9a2.229,2.229,0,0,0-.567.25,2.6,2.6,0,0,0-.433.35l-1.033-.317-.433.9.783.5a3.488,3.488,0,0,0-.067.65,3.488,3.488,0,0,0,.067.65l-.783.5.433.9,1.033-.317a2.6,2.6,0,0,0,.433.35,2.231,2.231,0,0,0,.567.25Zm.467-1.817a1.37,1.37,0,0,1-1.008-.408,1.37,1.37,0,0,1-.408-1.008,1.37,1.37,0,0,1,.408-1.008,1.37,1.37,0,0,1,1.008-.408,1.37,1.37,0,0,1,1.008.408,1.37,1.37,0,0,1,.408,1.008,1.37,1.37,0,0,1-.408,1.008A1.37,1.37,0,0,1,126-832.583ZM121-828a.959.959,0,0,1-.7-.3.959.959,0,0,1-.3-.7v-10a.959.959,0,0,1,.3-.7.959.959,0,0,1,.7-.3h10a.959.959,0,0,1,.7.3.959.959,0,0,1,.3.7v10a.959.959,0,0,1-.3.7.959.959,0,0,1-.7.3Zm0-1h10v-10H121Zm0-10v0Z" transform="translate(-120 840)" fill="#fff"/>
</svg>
