<svg id="user" xmlns="http://www.w3.org/2000/svg" width="20" height="20" viewBox="0 0 20 20">
  <rect id="사각형_1910" data-name="사각형 1910" width="20" height="20" fill="rgba(255,155,155,0)"/>
  <path id="패스_701" data-name="패스 701" d="M16.222,20.222a.778.778,0,0,1-.778-.778V17.889a2.336,2.336,0,0,0-2.333-2.333H6.889a2.336,2.336,0,0,0-2.333,2.333v1.556a.778.778,0,1,1-1.556,0V17.889A3.893,3.893,0,0,1,6.889,14h6.222A3.893,3.893,0,0,1,17,17.889v1.556A.778.778,0,0,1,16.222,20.222Z" transform="translate(0 -2.548)" fill="#696f78"/>
  <path id="타원_198" data-name="타원 198" d="M2.889-1A3.889,3.889,0,1,1-1,2.889,3.893,3.893,0,0,1,2.889-1Zm0,6.222A2.333,2.333,0,1,0,.556,2.889,2.336,2.336,0,0,0,2.889,5.222Z" transform="translate(7.111 3.118)" fill="#696f78"/>
</svg>
