<svg xmlns="http://www.w3.org/2000/svg" width="12" height="12" viewBox="0 0 12 12">
  <path id="picture_as_pdf_FILL0_wght400_GRAD0_opsz48" d="M83.765-873.265h.555v-1.245h.72a.537.537,0,0,0,.4-.16.537.537,0,0,0,.16-.4v-.72a.537.537,0,0,0-.16-.4.537.537,0,0,0-.4-.16H83.765Zm.555-1.8v-.72h.72v.72Zm1.935,1.8h1.26a.542.542,0,0,0,.39-.16.528.528,0,0,0,.165-.4v-1.965a.528.528,0,0,0-.165-.4.542.542,0,0,0-.39-.16h-1.26Zm.555-.555v-1.965h.705v1.965Zm1.995.555h.555v-1.245h.75v-.555h-.75v-.72h.75v-.555H88.8ZM82.7-869.8a.864.864,0,0,1-.63-.27.864.864,0,0,1-.27-.63v-8.4a.863.863,0,0,1,.27-.63.863.863,0,0,1,.63-.27h8.4a.863.863,0,0,1,.63.27.863.863,0,0,1,.27.63v8.4a.864.864,0,0,1-.27.63.864.864,0,0,1-.63.27Zm0-.9h8.4v-8.4H82.7ZM80.9-868a.863.863,0,0,1-.63-.27.863.863,0,0,1-.27-.63v-9.3h.9v9.3h9.3v.9Zm1.8-11.1v0Z" transform="translate(-80 880)" fill="#fff"/>
</svg>
