<svg xmlns="http://www.w3.org/2000/svg" width="11.935" height="12" viewBox="0 0 11.935 12">
  <path id="logout_FILL0_wght600_GRAD0_opsz48" d="M108.282,209.978a.617.617,0,0,1-.19-.452.6.6,0,0,1,.19-.446l1.137-1.137H104.58a.635.635,0,1,1,0-1.269h4.806l-1.162-1.162a.546.546,0,0,1-.169-.423.626.626,0,0,1,.2-.448.582.582,0,0,1,.452-.186.643.643,0,0,1,.46.194l2.231,2.231a.66.66,0,0,1,.143.214.622.622,0,0,1,.046.234.6.6,0,0,1-.046.232.663.663,0,0,1-.143.211l-2.224,2.224a.587.587,0,0,1-.433.173A.644.644,0,0,1,108.282,209.978ZM100.93,213.3a1.235,1.235,0,0,1-.9-.374,1.217,1.217,0,0,1-.377-.9v-9.452a1.287,1.287,0,0,1,1.279-1.279h4.092a.6.6,0,0,1,.451.19.635.635,0,0,1,.183.458.607.607,0,0,1-.183.45.617.617,0,0,1-.451.181H100.93v9.452h4.092a.635.635,0,1,1,0,1.269Z" transform="translate(-99.651 -201.304)" fill="#55595d"/>
</svg>
