<svg id="guide" xmlns="http://www.w3.org/2000/svg" width="12" height="12" viewBox="0 0 12 12">
  <path id="패스_2770" data-name="패스 2770" d="M6,11.25A5.25,5.25,0,1,0,.75,6,5.25,5.25,0,0,0,6,11.25ZM6,12A6,6,0,1,0,0,6a6,6,0,0,0,6,6Z" fill="#353740" fill-rule="evenodd"/>
  <path id="패스_2771" data-name="패스 2771" d="M3.938,4.525h.99a.958.958,0,0,1,1.02-1.038.871.871,0,0,1,.985.876c0,.476-.28.7-.724,1.028a1.709,1.709,0,0,0-.876,1.49l.005.347h.98V6.962c0-.538.2-.7.758-1.115a1.83,1.83,0,0,0,.933-1.542c0-1.133-.957-1.681-2.005-1.681a1.838,1.838,0,0,0-2.066,1.9ZM5.109,8.662a.706.706,0,0,0,.758.695.7.7,0,1,0,0-1.4A.705.705,0,0,0,5.109,8.662Z" transform="translate(0.027)" fill="#353740"/>
</svg>
