<svg xmlns="http://www.w3.org/2000/svg" width="48" height="48" viewBox="0 0 48 48">
  <g id="그룹_127102" data-name="그룹 127102" transform="translate(-466 -616)">
    <rect id="selectbox" width="48" height="48" rx="5" transform="translate(466 616)" fill="#f1f4fb"/>
    <g id="그룹_127100" data-name="그룹 127100" transform="translate(481 632)">
      <rect id="사각형_25213" data-name="사각형 25213" width="18" height="17" fill="rgba(206,212,218,0)"/>
      <path id="패스_24464" data-name="패스 24464" d="M14.945,8.489a.382.382,0,0,0,.263-.1l3.636-4.06,3.578,3.167a.383.383,0,1,0,.521-.561L19.1,3.519a.383.383,0,0,0-.523,0l-3.9,4.306a.383.383,0,0,0,.263.662" transform="translate(-5.161 1.721)" fill="#ced4da"/>
      <path id="패스_24465" data-name="패스 24465" d="M22.623,23.315a.382.382,0,0,0,.263-.1L28.7,17.325l4.2,4.066a.383.383,0,0,0,.522-.561l-4.46-4.31a.383.383,0,0,0-.524,0L22.36,22.653a.383.383,0,0,0,.263.662" transform="translate(-22.025 -9.364)" fill="#ced4da"/>
      <path id="패스_24466" data-name="패스 24466" d="M6.809,10.355A1.838,1.838,0,1,1,8.647,8.518a1.84,1.84,0,0,1-1.838,1.838m0-2.909A1.072,1.072,0,1,0,7.881,8.518,1.073,1.073,0,0,0,6.809,7.446" transform="translate(-2.302 -3.739)" fill="#ced4da"/>
      <path id="패스_24467" data-name="패스 24467" d="M16.085,6.851H1.915A1.917,1.917,0,0,1,0,4.936V-8.085A1.917,1.917,0,0,1,1.915-10h14.17A1.917,1.917,0,0,1,18-8.085V4.936a1.917,1.917,0,0,1-1.915,1.915M1.915-9.234A1.15,1.15,0,0,0,.766-8.085V4.936A1.15,1.15,0,0,0,1.915,6.085h14.17a1.15,1.15,0,0,0,1.149-1.149V-8.085a1.15,1.15,0,0,0-1.149-1.149Z" transform="translate(0 10)" fill="#ced4da"/>
    </g>
  </g>
</svg>
